<?xml version="1.0" encoding="UTF-8" standalone="no"?>
<!-- Created with Inkscape (http://www.inkscape.org/) -->

<svg
   width="210mm"
   height="297mm"
   viewBox="0 0 210 297"
   version="1.1"
   id="svg1"
   xml:space="preserve"
   xmlns="http://www.w3.org/2000/svg"
   xmlns:svg="http://www.w3.org/2000/svg"><defs
     id="defs1" /><g
     id="layer1"><g
       id="stage"
       transform="matrix(0.26458333,0,0,0.26458333,-79.408442,47.812206)"
       style="font-family:none;fill:none;stroke:none;stroke-width:1;stroke-linecap:butt;stroke-linejoin:miter;stroke-miterlimit:10"><g
         id="layer1-1"><path
           d="m 663.73954,158.43274 c 0.15286,0.23599 0.58888,0.3154 0.96846,0.17631 0.38239,-0.13997 0.69048,0 0.69048,0.3136 0,0.39167 0.26529,0.33692 0.86029,-0.17632 0.7775,-0.67118 3.2699,-0.74294 25.98709,-0.74654 l 25.1268,-0.004 1.1759,1.33517 c 1.14766,1.30286 1.32827,1.34682 7.52566,1.82508 11.54814,0.8919 18.40497,3.73094 25.71241,10.64589 2.41291,2.2836 5.03092,4.9988 5.81688,6.03427 0.78643,1.03502 2.32119,2.45408 3.41149,3.15353 2.19044,1.4056 8.84173,4.54882 10.68363,5.04905 7.24769,1.96732 9.72741,3.89738 12.16807,9.46865 2.36729,5.40572 3.91664,7.7997 6.25382,9.66649 2.5131,2.00679 2.98017,2.92786 0.98023,1.93276 -2.33107,-1.16019 -2.63258,-0.92107 -2.29486,1.81927 0.16744,1.35805 0.60911,3.22531 0.98164,4.14996 0.37253,0.9251 0.90731,2.53664 1.18812,3.58198 0.28081,1.04534 1.03243,2.43749 1.67022,3.09385 0.69471,0.71468 1.15943,1.73087 1.15943,2.53395 0,2.0059 1.00327,4.80947 1.72055,4.80947 0.40357,0 0.63122,0.54735 0.63122,1.51912 0,1.77618 2.20549,5.02616 6.88411,10.14565 1.6914,1.85066 3.66406,4.57617 4.38417,6.0567 1.76336,3.6255 4.36535,7.21825 6.92832,9.56646 1.16413,1.06688 2.01454,2.03684 1.88989,2.15574 -0.19848,0.18933 0.91437,2.90005 3.61514,8.80331 1.25444,2.74256 0.50517,1.92423 -1.52394,-1.66357 -2.83247,-5.00867 -5.59676,-8.31878 -6.94761,-8.31878 -0.6157,0 -1.11944,0.10363 -1.11944,0.23061 0,0.36116 1.11427,2.13869 1.76382,2.81255 0.71916,0.74654 0.77138,1.89194 0.0861,1.89194 -0.90168,0 0.90778,4.6852 2.72993,7.06884 0.61382,0.80353 0.99716,1.64519 0.85087,1.87084 -0.27844,0.4298 1.89177,2.27643 2.67539,2.27643 0.24929,0 1.18058,0.3293 2.07003,0.73174 0.88897,0.40244 1.71161,0.64111 1.82779,0.53031 0.11618,-0.11082 -0.20882,-0.98748 -0.72245,-1.94847 -0.51363,-0.96054 -0.92143,-2.15797 -0.90591,-2.6609 0.0268,-0.88294 0.047,-0.88563 0.58795,-0.0682 2.372,3.58422 4.00271,5.70138 5.65318,7.33939 1.35227,1.34235 1.77184,2.04537 1.42047,2.38051 -0.35135,0.33514 -0.93554,0.12517 -1.97737,-0.71111 -1.25397,-1.0063 -1.47879,-1.06643 -1.47879,-0.3966 0,0.78289 3.87571,4.67353 4.65604,4.67353 0.54797,0 2.65609,2.67976 3.05495,3.88437 0.17639,0.53255 1.26525,1.79818 2.4195,2.81301 1.89083,1.66268 2.09872,2.04672 2.09872,3.87629 0,1.52495 0.46847,2.84485 1.88141,5.30029 2.00936,3.4927 2.2022,4.42812 1.3231,6.41696 -0.32689,0.73892 -0.58136,3.78118 -0.61382,7.3331 -0.0306,3.33881 -0.24599,6.36403 -0.47835,6.72295 -0.23282,0.35892 -0.46565,1.90092 -0.51739,3.4263 -0.0936,2.72642 -0.89555,5.77809 -1.75113,6.66148 -0.26763,0.27637 -0.31654,-0.29656 -0.12794,-1.49264 0.16885,-1.06777 0.15569,-2.98572 -0.0287,-4.26212 l -0.33536,-2.32083 -0.58041,1.79457 c -0.31937,0.98702 -0.59688,1.47469 -0.61663,1.08347 -0.0198,-0.39077 -0.66649,-1.24634 -1.43647,-1.90091 -1.15708,-0.98342 -1.35134,-1.42536 -1.1171,-2.54203 0.20883,-0.99689 0.10725,-1.35132 -0.3871,-1.35132 -0.36875,0 -0.92142,-0.23958 -1.2281,-0.5321 -0.91154,-0.86947 -2.52767,-0.88697 -3.1843,-0.035 -0.71023,0.92286 -0.56396,3.81885 0.20553,4.06383 0.28927,0.092 0.52633,0.43653 0.52633,0.76583 0,0.3293 0.53149,1.60794 1.18058,2.84082 1.14578,2.17593 1.17494,2.45856 0.98774,9.57049 -0.10583,4.03063 -0.43837,8.24071 -0.73846,9.35559 -0.4633,1.71965 -0.39511,2.67304 0.44682,6.28104 0.54655,2.33968 1.30194,6.37389 1.67964,8.96482 0.72812,4.99656 1.42329,6.64669 3.64148,8.64046 1.11144,0.99913 1.317,1.47424 1.06629,2.46755 -0.17073,0.67612 -0.48682,1.93635 -0.70271,2.79999 -0.21589,0.86364 -0.72387,2.29392 -1.12884,3.17865 -0.44873,0.9803 -0.77655,3.16967 -0.84006,5.60807 -0.0875,3.34913 0.0706,4.36441 0.97034,6.24288 3.14996,6.57533 3.34188,7.48609 3.56106,16.88341 0.11288,4.84446 0.39887,9.28605 0.63545,9.87019 0.23658,0.58414 1.72242,3.63267 3.30189,6.77454 1.57945,3.1414 2.87153,5.94052 2.87153,6.22001 0,0.44596 0.82735,2.13555 2.50463,5.11634 2.5625,4.55284 3.44205,5.79874 4.8423,6.8553 0.88897,0.67118 2.14246,2.31097 2.78544,3.6439 1.2883,2.66989 1.27936,3.46488 -0.0169,1.51596 -1.66082,-2.49627 -3.27837,-3.71612 -6.46926,-4.87946 -2.85034,-1.03862 -3.22334,-1.30555 -2.99381,-2.14228 0.43743,-1.59583 -2.48113,-7.69695 -4.7741,-9.9792 -2.14858,-2.13913 -3.06859,-2.32489 -3.32306,-0.67207 -0.0847,0.55138 -0.45484,1.11219 -0.82312,1.24678 -1.02067,0.37372 -0.81652,3.27195 0.38945,5.5246 0.84711,1.58146 1.43411,2.0862 2.93972,2.52677 l 1.88142,0.5505 -2.07238,-0.25707 -2.07192,-0.25706 0.34807,1.52628 c 0.19191,0.83987 0.5188,2.8996 0.72717,4.57708 0.23424,1.88834 0.70036,3.39041 1.22432,3.94224 0.46518,0.49036 0.89415,1.23736 0.95341,1.66044 0.41156,2.95119 3.03378,8.58932 4.42603,9.51711 0.18486,0.12338 0.48353,0.67385 0.66366,1.22389 0.21657,0.66229 2.92651,3.19261 5.45167,5.28363 -0.96762,0.27143 -1.90704,0.71685 -2.60608,1.42413 -1.86293,1.88483 -2.3798,4.92319 -2.51833,6.07784 -2.88777,1.25499 -11.06137,-0.47387 -16.50414,2.27952 -1.78493,0.90296 -2.89179,2.95466 -3.45858,4.40071 -3.25423,1.02478 -7.88268,1.24743 -12.56121,2.82528 -2.40109,0.80978 -3.99525,3.74167 -4.54138,5.17086 -1.57005,0.44425 -6.1674,2.20694 -6.62607,2.36162 -3.7561,1.26676 -7.73301,0.6062 -14.04215,1.67009 -12.06423,2.03434 -18.64502,5.57249 -28.86189,5.57249 -10.9926,0 -20.41649,2.81367 -29.68433,5.93927 -7.88122,2.65795 -20.47767,-2.64523 -31.94911,1.99728 -5.98368,2.4216 -9.67883,6.16098 -14.17043,7.29709 -4.93597,1.24851 -12.50984,-0.16867 -19.11939,-0.16867 -3.1374,0 -14.34977,1.13199 -16.84668,0.2899 -7.4209,-2.50271 -15.62404,-6.55892 -25.26929,-7.77875 -11.23828,-1.4213 -23.65409,-2.30498 -34.02316,-5.2812 -0.11523,-0.0603 -0.2068,-0.10157 -0.2672,-0.12195 -0.8979,-0.30282 -1.81376,-0.57695 -2.74522,-0.82473 -0.86203,-0.29644 -1.70625,-0.61059 -2.53054,-0.94418 -8.2935,-3.3564 -14.69785,-8.39868 -23.77276,-12.98948 -5.65199,-2.85922 -11.87684,-2.80992 -15.62132,-4.07276 -2.58869,-0.87303 -5.86726,-5.74499 -11.16744,-7.53249 -2.07273,-0.69903 -4.41041,-3.99824 -9.3062,-5.64936 -1.16568,-0.39312 -2.41811,-0.445 -3.56685,-0.35013 -0.0523,-0.57262 -0.15937,-1.15777 -0.34667,-1.72625 -0.34439,-1.0453 -1.53201,-2.6804 -2.38846,-3.29927 -0.87307,-0.63088 -2.50896,-1.14127 -3.28593,-1.21128 -1.2357,-0.11133 -2.72984,0.20744 -3.41429,0.39244 -0.3895,0.10527 -0.6158,0.17398 -0.72204,0.22509 -1.67132,-0.92376 -4.35584,-3.26518 -6.58832,-5.34094 1.77652,-1.72223 2.62131,-2.79246 2.32662,-2.96622 -0.37441,-0.22074 -0.10112,-1.02784 0.88992,-2.6313 0.94823,-1.53437 1.68057,-3.63492 2.17445,-6.23707 0.40921,-2.15798 1.16506,-5.63991 1.67917,-7.73733 0.68436,-2.79192 0.89697,-5.01496 0.7949,-8.29993 l -0.13922,-4.48644 -2.57942,-0.0834 c -3.98626,-0.12877 -5.8037,0.36698 -6.1259,1.67031 -0.18344,0.74116 -0.61851,1.12206 -1.32076,1.15616 -0.57618,0.0283 -1.49807,0.43204 -2.04887,0.89728 -0.81465,0.68822 -0.76056,0.49531 0.28974,-1.03456 0.71023,-1.03457 1.16789,-2.07139 1.01737,-2.30379 -0.15052,-0.2324 -1.22902,-0.55946 -2.39645,-0.72636 -1.98302,-0.28354 -2.12225,-0.39346 -2.12225,-1.673 0,-1.36658 0.004,-1.36883 2.09637,-1.06958 1.80192,0.25797 2.18151,0.17003 2.70124,-0.62361 l 0.60489,-0.92332 0.7535,0.95292 c 0.73657,0.93139 0.79256,0.93542 2.48206,0.17048 3.29719,-1.49219 5.02855,-5.15584 4.95518,-10.48618 -0.0663,-4.83907 -0.38005,-5.66369 -2.15422,-5.66279 -1.46656,9e-4 -1.68482,-0.80934 -0.34947,-1.29792 0.91813,-0.33604 0.83535,-1.23915 -0.51645,-5.63409 -1.35556,-4.40703 -1.42941,-6.06164 -0.45012,-10.09048 0.86639,-3.56358 1.60014,-5.18634 2.34425,-5.18634 0.30619,0 0.95952,-0.42442 1.45199,-0.94305 0.49198,-0.51908 1.53007,-1.25397 2.30708,-1.63351 0.77655,-0.37956 2.00231,-1.15974 2.72335,-1.73402 0.98257,-0.78244 1.66082,-0.97715 2.70453,-0.77795 1.08698,0.20728 1.3932,0.10543 1.3932,-0.46346 0,-0.40109 -0.29727,-0.72905 -0.66086,-0.72905 -0.49952,0 -0.59922,-0.43834 -0.40826,-1.79458 0.18532,-1.31768 0.0856,-1.79457 -0.37534,-1.79457 -0.34524,0 0.135,-0.75687 1.0677,-1.68242 l 1.69563,-1.68242 -0.10959,-5.60806 c -0.0903,-4.64302 -0.44683,-7.09129 -2.0705,-14.22922 -1.07851,-4.74128 -1.96091,-9.44263 -1.96091,-10.44669 0,-1.96506 -1.11427,-4.03736 -2.17069,-4.03736 -0.7535,0 -0.79724,-0.24181 -0.66649,-3.66229 0.0771,-2.01801 -0.0955,-2.72418 -0.83771,-3.43214 -0.83112,-0.79276 -0.92753,-1.45405 -0.87156,-5.98358 0.0343,-2.80045 -0.1557,-7.61576 -0.42286,-10.70018 -0.37016,-4.27693 -0.34241,-6.46004 0.11618,-9.19721 0.33067,-1.97404 0.60394,-4.80051 0.6077,-6.28104 0.006,-2.49088 -0.0936,-2.74616 -1.32969,-3.41644 -1.12274,-0.60926 -1.30148,-0.94934 -1.11945,-2.13107 0.30573,-1.98884 -0.8471,-1.84124 -2.15987,0.27592 -1.00939,1.62768 -1.03336,1.63844 -0.7394,0.33647 0.16744,-0.74025 0.58182,-1.95161 0.92096,-2.69186 1.42,-3.09879 2.16787,-7.77995 1.1472,-7.17833 -0.25869,0.15253 -0.47036,0.0754 -0.47036,-0.17138 0,-0.24675 0.19191,-0.5617 0.42615,-0.69988 0.88755,-0.52311 1.80617,-4.11946 1.50325,-5.88443 -0.29491,-1.71741 -0.25069,-1.79143 1.5216,-2.55368 1.00421,-0.43159 2.20313,-0.78513 2.66455,-0.78513 1.0329,0 1.52442,-1.05745 0.80901,-1.73986 -0.38993,-0.37194 -0.31749,-0.50337 0.27893,-0.50337 0.44355,0 1.2201,-0.64919 1.72572,-1.4424 0.8203,-1.28627 1.12274,-1.42805 2.79955,-1.31229 1.03384,0.0709 2.99803,0.66265 4.36489,1.31453 1.98678,0.94798 3.19323,1.19339 6.01301,1.2239 4.58831,0.0498 8.4819,-1.5909 12.2532,-5.16256 2.89315,-2.73943 3.24874,-3.51065 6.52194,-14.13725 1.75113,-5.68388 1.93457,-6.75031 1.93316,-11.21611 -0.002,-6.29269 1.09452,-15.94214 2.14106,-18.84309 1.16977,-3.24191 3.55401,-6.47934 7.16351,-9.72708 2.54932,-2.29392 4.50318,-3.4779 10.10086,-6.12131 4.77176,-2.25355 7.18796,-3.65376 7.73403,-4.48196 0.4365,-0.66265 1.25256,-1.74522 1.81322,-2.40653 0.56113,-0.66086 1.17024,-1.97313 1.35368,-2.91618 0.18344,-0.9426 0.9647,-2.84754 1.73561,-4.23252 1.13262,-2.03281 2.18951,-3.0638 5.48716,-5.35189 5.41426,-3.75651 8.92262,-6.72788 11.17327,-9.46417 2.09073,-2.54112 7.31354,-6.4735 10.80074,-8.13215 1.28454,-0.61105 3.05119,-1.46842 3.92558,-1.90449 1.37955,-0.68868 2.2196,-0.74431 6.34979,-0.42352 4.38136,0.34052 16.56871,0.49082 26.86666,0.33155 2.32826,-0.0363 5.07982,-0.0745 6.1146,-0.0848 3.68522,-0.0377 4.24307,-0.12741 5.0408,-0.81025 0.44402,-0.38045 1.32593,-0.6918 1.9595,-0.6918 0.73093,0 1.23609,-0.30778 1.38238,-0.84121 z M 499.27016,479.12052 c -0.71353,-0.96504 -1.16225,-1.17456 -2.05592,-0.96054 -1.64576,0.39391 -1.56864,-1.28941 0.0922,-2.01127 1.15002,-0.4998 1.20975,-0.66758 0.86546,-2.42717 -0.20366,-1.03995 -0.39368,-3.20287 -0.4219,-4.80678 -0.0287,-1.60391 -0.23754,-3.28991 -0.46377,-3.74664 -0.24083,-0.48588 -0.23283,-0.95113 0.0193,-1.12161 0.22199,-0.15007 0.45179,-0.4523 0.66527,-0.84224 1.94671,2.31953 5.35485,5.74796 9.41317,7.11665 0.52582,0.17733 1.07494,0.27563 1.62268,0.31804 0.14836,1.06946 0.4681,2.17568 1.08082,3.10557 1.19244,1.8097 4.2044,3.18092 5.7171,3.27477 1.30959,0.0813 2.84485,-0.23688 3.66622,-0.44909 1.09668,-0.28335 1.33296,-0.39261 1.23709,-0.47912 1.75346,0.83439 4.11018,3.87574 9.01096,5.52854 0.60529,0.20413 1.31047,0.75816 2.14792,1.48977 -2.55299,-0.28586 -4.65911,-0.24955 -6.44627,-0.33529 -2.79329,-0.134 -4.71535,-0.39357 -8.18993,-2.15129 -0.20288,-0.10263 -2.14431,-1.21418 -4.21163,-2.04586 -1.05391,-0.42398 -2.7195,-0.94802 -4.01109,-1.04939 -0.8118,-0.0637 -2.51049,0.10638 -3.54173,0.56895 -1.24993,0.56066 -3.20918,2.76596 -3.59464,4.32594 -0.0695,0.28143 -0.12857,0.56573 -0.17758,0.85223 -0.68458,-1.42543 -1.62146,-3.0694 -2.42369,-4.15417 z m 188.0516,42.16589 c 7.24631,-1.83288 11.63481,-6.15934 15.60942,-7.76788 1.17003,-0.47351 2.43615,-0.7593 3.78145,-0.91569 -1.70197,0.80937 -3.71572,2.15249 -4.81618,3.7251 -1.46189,2.08912 -1.89498,6.6117 -0.44947,9.53671 0.0882,0.17839 0.19083,0.35547 0.30593,0.53034 -0.45602,0.42717 -15.18168,-4.91874 -14.43115,-5.10858 z m 131.01968,-27.84969 c 0.86743,-0.87763 1.42054,-2.00475 1.769,-2.95682 3.81727,-0.82194 8.98962,-1.22005 13.53099,-3.51742 1.69414,-0.85703 2.77746,-2.74893 3.36788,-4.1756 1.45566,-0.22097 3.52783,-0.26085 5.81133,-0.40039 -1.09705,1.0131 -1.91322,2.10991 -2.36708,2.77574 -0.0758,0.11114 -0.14378,0.21161 -0.20472,0.30241 -1.74175,0.73901 -3.48486,1.48609 -5.21682,2.23753 -0.47702,0.20695 -0.95385,0.41455 -1.43029,0.62271 -2.92673,0.82697 -6.18509,1.86344 -9.27717,3.94905 -0.17032,0.11489 -0.35492,0.27304 -0.54413,0.46131 -3.48108,1.61169 -6.8534,3.23217 -10.02313,4.83567 -0.25097,0.12696 -1.33582,-0.29447 -2.92204,-0.56562 3.05258,-1.24619 6.83059,-2.88503 7.50618,-3.56857 z m 38.96167,-17.90368 c 0.30541,0.65919 0.60993,1.31744 0.91359,1.97472 -0.73621,0.12108 -1.47693,0.24727 -2.22076,0.38116 0.57685,-0.71785 0.99878,-1.54642 1.30717,-2.35588 z M 588.0101,183.2944 c -3.01638,1.93769 -6.13107,6.11459 -4.55914,6.11459 0.20036,0 1.91905,-1.49264 3.8188,-3.31684 z m 208.36613,31.28758 c 0.88521,0.80846 1.63402,3.42137 1.65094,5.76105 0.016,2.19971 -0.6759,1.18308 -1.35886,-1.99646 -0.31796,-1.48053 -0.6919,-3.09565 -0.83017,-3.58916 z m 7.0633,27.76709 c -0.13781,0 1.96749,6.39992 2.61422,7.94685 0.40875,0.9776 3.7078,3.26927 4.70684,3.26927 1.2676,0 -0.6712,-3.45681 -4.47636,-7.9805 z m 15.29452,13.53023 c 0.64674,0 0.91155,0.10183 0.58795,0.22612 -0.32313,0.12472 -0.85229,0.12472 -1.1759,0 z m -310.66917,12.93982 c 0.0988,0 0.31043,0.2019 0.47035,0.44866 0.15992,0.24675 -0.0517,0.44865 -0.47035,0.44865 -0.41861,0 -0.63028,-0.20189 -0.47036,-0.44865 z m 323.03996,9.67367 c 0.4539,0.166 1.03854,0.68194 1.29913,1.14675 0.64579,1.15078 0.34665,1.06014 -0.9948,-0.30239 z m -324.45149,3.5784 c -0.36499,0.9776 -0.67308,1.43387 -0.68436,1.0135 -0.0113,-0.42039 0.22531,-1.27909 0.52586,-1.90854 z m 14.57017,6.93695 c -0.48305,0 -1.55453,2.15708 -1.83861,3.70131 -0.23988,1.30466 -0.52681,1.68242 -1.2789,1.68242 -0.69095,0 -0.88804,0.20413 -0.68436,0.70975 0.15711,0.39031 0.28552,0.98208 0.28552,1.31543 0,1.60973 5.23787,1.00945 6.66821,-0.76358 0.95906,-1.18936 1.09921,-3.85611 0.25447,-4.85614 -0.31515,-0.37327 -1.16506,-0.92824 -1.88847,-1.23376 z m 316.89714,22.67451 c -0.04,1.86009 0.10537,3.2778 0.3222,3.14948 0.64109,-0.37775 1.00468,-2.90138 0.68953,-4.78345 z m -5.66214,2.89824 c 0.0828,0.86364 0.36265,1.51058 0.62134,1.43791 0.25869,-0.0731 0.39933,-0.57786 0.31232,-1.12161 z m -310.51818,9.87019 c -0.27705,0.49351 -0.40685,0.89728 -0.28879,0.89728 0.11759,0 -0.29068,0.90583 -0.90779,2.01263 -1.41812,2.54472 -2.39787,10.52206 -1.67776,13.66392 0.25776,1.12475 0.59264,2.95343 0.74457,4.06383 0.42755,3.12841 0.88756,3.47791 2.06816,1.56891 0.55783,-0.90177 1.27654,-1.55456 1.59638,-1.45048 0.77374,0.25213 2.22808,-1.37285 2.22808,-2.48952 0,-0.48812 0.46894,-1.61153 1.04231,-2.49626 0.88145,-1.36074 1.01925,-2.12838 0.89414,-4.98355 -0.14252,-3.26433 -1.00421,-5.85167 -1.94868,-5.85167 -0.25211,0 -0.45813,-0.30284 -0.45813,-0.67297 0,-0.37013 -0.21166,-0.67297 -0.47035,-0.67297 -0.25869,0 -0.47035,-0.49261 -0.47035,-1.09515 0,-0.60252 -0.21167,-1.21987 -0.47036,-1.3724 -0.25869,-0.15253 -0.47035,-0.66892 -0.47035,-1.14808 z m 310.22656,0.44865 c 0.1143,0 0.20744,0.20189 0.20744,0.44865 0,0.24675 -0.22436,0.44866 -0.49811,0.44866 -0.27375,0 -0.36735,-0.2019 -0.20743,-0.44866 z m 7.49794,39.9294 c 0.3697,0.61689 0.66273,1.52538 0.6505,2.01889 -0.0164,0.6945 -0.16744,0.59356 -0.66744,-0.44865 -0.35559,-0.74025 -0.64814,-1.64877 -0.6505,-2.0189 z m 1.17587,5.38373 c 0.27705,0.49351 0.32689,0.89728 0.11054,0.89728 -0.49999,0 -1.5216,-0.96368 -1.5216,-1.43567 z m -5.64425,0.89728 c -0.25869,0 -0.47035,0.2019 -0.47035,0.44866 0,0.24675 0.21166,0.44865 0.47035,0.44865 0.25869,0 0.47036,-0.20189 0.47036,-0.44865 z m -319.53818,8.16444 c -3.44488,1.14449 -6.5812,3.89917 -7.30649,6.41653 -0.93319,3.23966 -0.39699,9.11198 0.90119,9.87737 0.24647,0.14536 0.95153,-0.82148 1.56676,-2.14812 0.73139,-1.57743 1.87202,-3.00143 3.29719,-4.11541 1.19847,-0.93678 2.17916,-2.05523 2.17916,-2.48594 0,-1.00811 1.75865,-3.14679 2.58742,-3.14679 0.35088,0 0.99198,-0.33784 1.42517,-0.75103 0.90026,-0.8587 0.67167,-3.63448 -0.35088,-4.25316 z m 11.49266,9.33271 c -0.20649,0 -1.16084,0.50787 -2.11988,1.12924 -0.95953,0.62092 -1.9167,1.02739 -2.12696,0.90312 -0.57994,-0.34186 -2.65044,1.37464 -3.80188,3.15129 -1.04183,1.60794 -1.05783,2.44422 -0.11759,6.03249 0.36782,1.40471 0.55831,1.55455 1.80099,1.42175 1.52302,-0.1624 4.00367,-2.45813 4.90862,-4.54209 0.29867,-0.68732 1.04089,-1.46618 1.65,-1.73087 0.70413,-0.30597 1.04371,-0.77614 0.93319,-1.2921 -0.0955,-0.44596 -0.30338,-1.7699 -0.46188,-2.94175 z m -10.60321,9.64588 c 0.31137,2.12433 0.8819,3.3303 1.36026,2.87402 0.11901,-0.11351 0.005,-1.1095 -0.25446,-2.21316 z m -3.00933,6.94726 -0.87627,-1.3742 -0.29445,1.69991 c -0.1618,0.93497 -0.2968,2.55099 -0.29963,3.59096 -0.004,1.44867 -0.23235,2.00679 -0.97692,2.3868 -0.53432,0.27277 -1.36357,1.36791 -1.84239,2.43389 -0.47882,1.06598 -1.10016,2.07319 -1.38002,2.2383 -0.73046,0.43071 -0.62793,1.14449 0.16416,1.14449 0.37016,0 1.11662,-0.59356 1.65848,-1.31947 0.54184,-0.72545 1.36449,-1.43432 1.82874,-1.57474 1.03148,-0.31226 2.89457,-4.44023 2.89457,-6.41293 z m 325.06813,11.78141 c -0.64016,-0.20099 -0.74928,0.31272 -0.30243,1.42355 0.42567,1.0579 1.214,0.85736 1.0409,-0.2647 z m 1.4026,6.17112 c 0.32313,0.49351 0.74833,0.89729 0.94493,0.89729 0.54843,0 0.42662,-0.4464 -0.31514,-1.15347 z m -3.87196,-0.22434 c -0.59876,-0.35309 -0.59876,0.68644 0,1.57026 0.37065,0.5469 0.45718,0.48903 0.4633,-0.31002 z m -338.3627,3.81349 c 0.3871,0 0.13829,0.36834 -0.64533,0.95473 -0.74599,0.55767 -0.76244,0.54196 -0.17779,-0.1696 z m 350.36802,9.43052 c -0.44683,-0.35399 -0.71682,-0.38807 -0.71682,-0.0902 0,0.54196 0.89227,1.1741 1.21869,0.86318 z m -6.42551,19.37877 c -0.68953,-0.93857 -0.76856,-0.95022 -1.42517,-0.20861 -0.38239,0.43204 -0.98163,1.65324 -1.33156,2.7134 -0.59359,1.79772 -0.5696,1.99108 0.35605,2.87402 1.14719,1.09424 4.40394,2.27689 4.91896,1.78562 0.19238,-0.18349 -0.13124,-1.64698 -0.71965,-3.25178 z m -61.6758,50.96345 c -0.66664,0.16799 -1.30922,0.35915 -1.91775,0.55507 -0.77295,-1.19734 -1.98026,-2.07345 -3.38606,-2.41072 4.30259,-1.00502 8.25843,-2.26093 12.55708,-3.23537 -3.28918,1.29346 -5.50439,3.4612 -7.25327,5.09102 z m 86.38793,-8.38168 c 0.19281,-0.57978 0.35843,-1.06862 0.50439,-1.48575 0.16133,0.35949 0.32243,0.71869 0.48322,1.07758 -0.32495,0.15208 -0.65404,0.28757 -0.98761,0.40817 z m -361.83738,-3.04181 h -0.58002 c 0.004,-0.28505 0.003,-0.57127 -0.003,-0.85766 0.18745,0.29964 0.38226,0.58611 0.58329,0.85766 z m 20.29977,-1.03119 c 3.30335,0.15848 5.71064,0.0403 8.9613,0.86252 0.19227,0.0486 0.38663,0.10511 0.5832,0.16867 h -9.20486 c -1.07077,-0.40391 -2.13697,-0.82979 -3.1758,-1.28091 1.01337,0.13398 1.96004,0.20769 2.83616,0.24972 z"
           id="CompoundPath-1"
           fill="#d21e2b"
           fill-rule="evenodd"
           style="fill:#c83771;fill-opacity:1" /><path
           d="m 707.72758,278.91044 c 3.89327,-0.97332 6.25111,-3.27081 8.38657,-4.125 0.62863,-0.25145 1.30888,-0.40321 2.03168,-0.48626 -0.91443,0.4298 -1.99637,1.14304 -2.58762,1.97815 -0.78544,1.10939 -1.01813,3.51103 -0.24149,5.06431 0.0474,0.0947 0.10253,0.18877 0.16437,0.28163 C 715.23608,281.85011 715.10033,282 715,282 c -0.26618,0 -1.58346,0.19358 -2.2651,0.84267 -0.37352,0.35568 -0.78063,1.38949 -0.86377,2.2282 l -5.10448,-0.67179 c 0.20786,-3.40544 0.51851,-5.37803 0.96093,-5.48864 z"
           id="Path-3"
           fill="none"
           fill-rule="nonzero" /><path
           d="m 699.57739,306.73988 c -0.0462,-0.45723 -0.0969,-0.91398 -0.15272,-1.3714 0.14951,-0.0512 0.29318,-0.10048 0.42862,-0.1469 -0.0884,0.5069 -0.18055,1.01282 -0.2759,1.5183 z"
           id="Path-3-1"
           fill="none"
           fill-rule="nonzero" /><path
           d="m 687.72386,291.30561 c -0.002,0.0119 -0.005,0.0238 -0.007,0.0357 -0.003,-0.0177 -0.006,-0.0353 -0.009,-0.053 0.005,0.006 0.0105,0.0115 0.0158,0.0173 z"
           id="Path-3-2"
           fill="none"
           fill-rule="nonzero" /><path
           d="m 688.31593,285.65994 c -0.19811,0.39656 -0.32782,0.78548 -0.40865,1.1548 -0.36331,-0.26097 -0.73921,-0.49141 -1.08388,-0.65847 -0.0605,-0.33437 -0.11981,-0.65859 -0.17803,-0.97237 0.54059,0.15817 1.0972,0.31973 1.67056,0.47604 z"
           id="Path-3-3"
           fill="none"
           fill-rule="nonzero" /><path
           d="m 620.4577,264.4524 c 1.77481,0.0842 3.06819,0.0214 4.81469,0.45803 0.1033,0.0258 0.20773,0.0558 0.31334,0.0896 -1.64852,0 -3.29703,0 -4.94555,0 -0.5753,-0.21449 -1.14814,-0.44065 -1.70628,-0.68021 0.54446,0.0711 1.05308,0.11029 1.5238,0.13261 z"
           id="Path-3-4"
           fill="none"
           fill-rule="nonzero" /><path
           d="m 609.55112,265 c -0.10388,0 -0.20775,0 -0.31163,0 0.002,-0.15137 0.002,-0.30337 -0.002,-0.45545 0.10071,0.15912 0.20538,0.31125 0.31339,0.45545 z"
           id="Path-3-5"
           fill="none"
           fill-rule="nonzero" /><path
           d="m 606.69197,256.51895 c -0.38336,-0.51247 -0.62445,-0.62373 -1.1046,-0.51008 -0.88423,0.20918 -0.84279,-0.68472 0.0495,-1.06805 0.61788,-0.26541 0.64997,-0.35451 0.46499,-1.28891 -0.10942,-0.55225 -0.21152,-1.70083 -0.22668,-2.55256 -0.0154,-0.85173 -0.12762,-1.74705 -0.24917,-1.98959 -0.12939,-0.25802 -0.12509,-0.50508 0.0104,-0.59561 0.11927,-0.0797 0.24273,-0.24019 0.35743,-0.44726 1.04592,1.23175 2.87703,3.05236 5.05747,3.77918 0.28251,0.0942 0.57754,0.14637 0.87183,0.16889 0.0797,0.56792 0.2515,1.15536 0.5807,1.64916 0.64067,0.96101 2.25892,1.68917 3.07166,1.73901 0.70361,0.0431 1.52847,-0.12579 1.96977,-0.23848 0.58922,-0.15047 0.71617,-0.20849 0.66466,-0.25443 0.94209,0.44309 2.2083,2.05815 4.84137,2.93584 0.32521,0.1084 0.70409,0.40261 1.15403,0.79112 -1.37166,-0.1518 -2.50323,-0.13252 -3.46343,-0.17805 -1.50077,-0.0712 -2.53344,-0.209 -4.40025,-1.14241 -0.109,-0.0545 -1.15209,-0.64477 -2.26281,-1.08642 -0.56624,-0.22515 -1.46112,-0.50343 -2.15506,-0.55726 -0.43616,-0.0338 -1.34883,0.0565 -1.90289,0.30213 -0.67156,0.29773 -1.72421,1.46882 -1.93131,2.29722 -0.0374,0.14945 -0.0691,0.30042 -0.0954,0.45256 -0.36781,-0.75695 -0.87117,-1.62995 -1.30219,-2.206 z"
           id="Path-3-6"
           fill="none"
           fill-rule="nonzero" /><path
           d="m 778.12131,264.12133 c 0.46605,-0.46605 0.76322,-1.06459 0.95044,-1.57017 2.05093,-0.43648 4.82991,-0.64789 7.26988,-1.86787 0.91022,-0.45511 1.49226,-1.45977 1.80948,-2.21738 0.78209,-0.11734 1.89542,-0.13852 3.12229,-0.21262 -0.58942,0.53799 -1.02793,1.12043 -1.27178,1.47401 -0.0407,0.059 -0.0773,0.11237 -0.10999,0.16059 -0.9358,0.39244 -1.87233,0.78916 -2.80287,1.1882 -0.25629,0.1099 -0.51248,0.22014 -0.76846,0.33068 -1.57246,0.43915 -3.3231,0.98955 -4.9844,2.09708 -0.0915,0.061 -0.19069,0.14499 -0.29235,0.24497 -1.8703,0.85586 -3.68217,1.71639 -5.38519,2.5679 -0.13484,0.0674 -0.7177,-0.15637 -1.56994,-0.30036 1.64008,-0.66177 3.66991,-1.53205 4.03289,-1.89503 z"
           id="Path-3-7"
           fill="none"
           fill-rule="nonzero" /><path
           d="m 799.05448,254.61388 c 0.16409,0.35005 0.3277,0.6996 0.49085,1.04864 -0.39555,0.0643 -0.79352,0.13131 -1.19316,0.20241 0.30993,-0.3812 0.53662,-0.8212 0.70231,-1.25105 z"
           id="Path-3-8"
           fill="none"
           fill-rule="nonzero" /><path
           d="m 757.5435,271.06625 c -0.35817,0.0892 -0.70341,0.19072 -1.03036,0.29476 -0.41529,-0.63583 -1.06395,-1.10107 -1.81925,-1.28017 2.31168,-0.5337 4.43706,-1.20063 6.74662,-1.71809 -1.7672,0.68687 -2.95738,1.83801 -3.89701,2.7035 z"
           id="Path-3-9"
           fill="none"
           fill-rule="nonzero" /><path
           d="m 723.06361,286.15178 c 1.29803,0.12923 2.78163,0.14122 4.05056,-0.36635 0.75889,-0.30356 1.33673,-0.66456 1.77899,-0.99656 0.23637,0.0939 0.48727,0.15854 0.74812,0.18974 0.52406,0.69539 1.36312,1.34896 1.9578,1.62325 0.25114,0.11583 0.52864,0.21669 0.82369,0.30397 -0.42202,-0.0265 -0.96632,-0.0409 -1.58377,-0.0316 -0.79118,0.0119 -1.86747,0.10364 -2.69828,0.3379 l -5.78381,-0.7612 c 0.23505,-0.0989 0.47157,-0.19902 0.7067,-0.29911 z"
           id="Path-3-10"
           fill="none"
           fill-rule="nonzero" /><path
           d="m 803.95766,266.6153 c 0.10359,-0.30788 0.19258,-0.56747 0.271,-0.78898 0.0867,0.1909 0.17323,0.38165 0.25962,0.57223 -0.17459,0.0808 -0.3514,0.15271 -0.53062,0.21675 z"
           id="Path-3-11"
           fill="none"
           fill-rule="nonzero" /><path
           d="m 688.31593,285.65994 c -0.19811,0.39656 -0.32782,0.78548 -0.40865,1.1548 -0.36331,-0.26097 -0.73921,-0.49141 -1.08388,-0.65847 -0.0605,-0.33437 -0.11981,-0.65859 -0.17803,-0.97237 0.54059,0.15817 1.0972,0.31973 1.67056,0.47604 z"
           id="Path-3-12"
           fill="none"
           fill-rule="nonzero" /><path
           d="m 687.72386,291.30561 c -0.002,0.0119 -0.005,0.0238 -0.007,0.0357 -0.003,-0.0177 -0.006,-0.0353 -0.009,-0.053 0.005,0.006 0.0105,0.0115 0.0158,0.0173 z"
           id="Path-3-13"
           fill="none"
           fill-rule="nonzero" /><path
           d="m 699.57739,306.73988 c -0.0462,-0.45723 -0.0969,-0.91398 -0.15272,-1.3714 0.14951,-0.0512 0.29318,-0.10048 0.42862,-0.1469 -0.0884,0.5069 -0.18055,1.01282 -0.2759,1.5183 z"
           id="Path-1-1"
           fill="none"
           fill-rule="nonzero" /><path
           d="m 803.95766,266.6153 c 0.10359,-0.30788 0.19258,-0.56747 0.271,-0.78898 0.0867,0.1909 0.17323,0.38165 0.25962,0.57223 -0.17459,0.0808 -0.3514,0.15271 -0.53062,0.21675 z"
           id="Path-3-14"
           fill="none"
           fill-rule="nonzero" /><path
           d="m 723.06361,286.15178 c 1.29803,0.12923 2.78163,0.14122 4.05056,-0.36635 0.75889,-0.30356 1.33673,-0.66456 1.77899,-0.99656 0.23637,0.0939 0.48727,0.15854 0.74812,0.18974 0.52406,0.69539 1.36312,1.34896 1.9578,1.62325 0.25114,0.11583 0.52864,0.21669 0.82369,0.30397 -0.42202,-0.0265 -0.96632,-0.0409 -1.58377,-0.0316 -0.79118,0.0119 -1.86747,0.10364 -2.69828,0.3379 l -5.78381,-0.7612 c 0.23505,-0.0989 0.47157,-0.19902 0.7067,-0.29911 z"
           id="Path-3-15"
           fill="none"
           fill-rule="nonzero" /><path
           d="m 757.5435,271.06625 c -0.35817,0.0892 -0.70341,0.19072 -1.03036,0.29476 -0.41529,-0.63583 -1.06395,-1.10107 -1.81925,-1.28017 2.31168,-0.5337 4.43706,-1.20063 6.74662,-1.71809 -1.7672,0.68687 -2.95738,1.83801 -3.89701,2.7035 z"
           id="Path-3-16"
           fill="none"
           fill-rule="nonzero" /><path
           d="m 799.05448,254.61388 c 0.16409,0.35005 0.3277,0.6996 0.49085,1.04864 -0.39555,0.0643 -0.79352,0.13131 -1.19316,0.20241 0.30993,-0.3812 0.53662,-0.8212 0.70231,-1.25105 z"
           id="Path-3-17"
           fill="none"
           fill-rule="nonzero" /><path
           d="m 778.12131,264.12133 c 0.46605,-0.46605 0.76322,-1.06459 0.95044,-1.57017 2.05093,-0.43648 4.82991,-0.64789 7.26988,-1.86787 0.91022,-0.45511 1.49226,-1.45977 1.80948,-2.21738 0.78209,-0.11734 1.89542,-0.13852 3.12229,-0.21262 -0.58942,0.53799 -1.02793,1.12043 -1.27178,1.47401 -0.0407,0.059 -0.0773,0.11237 -0.10999,0.16059 -0.9358,0.39244 -1.87233,0.78916 -2.80287,1.1882 -0.25629,0.1099 -0.51248,0.22014 -0.76846,0.33068 -1.57246,0.43915 -3.3231,0.98955 -4.9844,2.09708 -0.0915,0.061 -0.19069,0.14499 -0.29235,0.24497 -1.8703,0.85586 -3.68217,1.71639 -5.38519,2.5679 -0.13484,0.0674 -0.7177,-0.15637 -1.56994,-0.30036 1.64008,-0.66177 3.66991,-1.53205 4.03289,-1.89503 z"
           id="Path-3-18"
           fill="none"
           fill-rule="nonzero" /><path
           d="m 707.72758,278.91044 c 3.89327,-0.97332 6.25111,-3.27081 8.38657,-4.125 0.62863,-0.25145 1.30888,-0.40321 2.03168,-0.48626 -0.91443,0.4298 -1.99637,1.14304 -2.58762,1.97815 -0.78544,1.10939 -1.01813,3.51103 -0.24149,5.06431 0.0474,0.0947 0.10253,0.18877 0.16437,0.28163 C 715.23608,281.85011 715.10033,282 715,282 c -0.26618,0 -1.58346,0.19358 -2.2651,0.84267 -0.37352,0.35568 -0.78063,1.38949 -0.86377,2.2282 l -5.10448,-0.67179 c 0.20786,-3.40544 0.51851,-5.37803 0.96093,-5.48864 z"
           id="Path-3-19"
           fill="none"
           fill-rule="nonzero" /><path
           d="m 707.72758,278.91044 c 3.89327,-0.97332 6.25111,-3.27081 8.38657,-4.125 0.62863,-0.25145 1.30888,-0.40321 2.03168,-0.48626 -0.91443,0.4298 -1.99637,1.14304 -2.58762,1.97815 -0.78544,1.10939 -1.01813,3.51103 -0.24149,5.06431 0.0474,0.0947 0.10253,0.18877 0.16437,0.28163 C 715.23608,281.85011 715.10033,282 715,282 c -0.26618,0 -1.58346,0.19358 -2.2651,0.84267 -0.37352,0.35568 -0.78063,1.38949 -0.86377,2.2282 l -5.10448,-0.67179 c 0.20786,-3.40544 0.51851,-5.37803 0.96093,-5.48864 z"
           id="Path-3-20"
           fill="none"
           fill-rule="nonzero" /><path
           d="m 778.12131,264.12133 c 0.46605,-0.46605 0.76322,-1.06459 0.95044,-1.57017 2.05093,-0.43648 4.82991,-0.64789 7.26988,-1.86787 0.91022,-0.45511 1.49226,-1.45977 1.80948,-2.21738 0.78209,-0.11734 1.89542,-0.13852 3.12229,-0.21262 -0.58942,0.53799 -1.02793,1.12043 -1.27178,1.47401 -0.0407,0.059 -0.0773,0.11237 -0.10999,0.16059 -0.9358,0.39244 -1.87233,0.78916 -2.80287,1.1882 -0.25629,0.1099 -0.51248,0.22014 -0.76846,0.33068 -1.57246,0.43915 -3.3231,0.98955 -4.9844,2.09708 -0.0915,0.061 -0.19069,0.14499 -0.29235,0.24497 -1.8703,0.85586 -3.68217,1.71639 -5.38519,2.5679 -0.13484,0.0674 -0.7177,-0.15637 -1.56994,-0.30036 1.64008,-0.66177 3.66991,-1.53205 4.03289,-1.89503 z"
           id="Path-3-21"
           fill="none"
           fill-rule="nonzero" /><path
           d="m 799.05448,254.61388 c 0.16409,0.35005 0.3277,0.6996 0.49085,1.04864 -0.39555,0.0643 -0.79352,0.13131 -1.19316,0.20241 0.30993,-0.3812 0.53662,-0.8212 0.70231,-1.25105 z"
           id="Path-3-22"
           fill="none"
           fill-rule="nonzero" /><path
           d="m 757.5435,271.06625 c -0.35817,0.0892 -0.70341,0.19072 -1.03036,0.29476 -0.41529,-0.63583 -1.06395,-1.10107 -1.81925,-1.28017 2.31168,-0.5337 4.43706,-1.20063 6.74662,-1.71809 -1.7672,0.68687 -2.95738,1.83801 -3.89701,2.7035 z"
           id="Path-3-23"
           fill="none"
           fill-rule="nonzero" /><path
           d="m 723.06361,286.15178 c 1.29803,0.12923 2.78163,0.14122 4.05056,-0.36635 0.75889,-0.30356 1.33673,-0.66456 1.77899,-0.99656 0.23637,0.0939 0.48727,0.15854 0.74812,0.18974 0.52406,0.69539 1.36312,1.34896 1.9578,1.62325 0.25114,0.11583 0.52864,0.21669 0.82369,0.30397 -0.42202,-0.0265 -0.96632,-0.0409 -1.58377,-0.0316 -0.79118,0.0119 -1.86747,0.10364 -2.69828,0.3379 l -5.78381,-0.7612 c 0.23505,-0.0989 0.47157,-0.19902 0.7067,-0.29911 z"
           id="Path-3-24"
           fill="none"
           fill-rule="nonzero" /><path
           d="m 803.95766,266.6153 c 0.10359,-0.30788 0.19258,-0.56747 0.271,-0.78898 0.0867,0.1909 0.17323,0.38165 0.25962,0.57223 -0.17459,0.0808 -0.3514,0.15271 -0.53062,0.21675 z"
           id="Path-3-25"
           fill="none"
           fill-rule="nonzero" /><path
           d="m 699.57739,306.73988 c -0.0462,-0.45723 -0.0969,-0.91398 -0.15272,-1.3714 0.14951,-0.0512 0.29318,-0.10048 0.42862,-0.1469 -0.0884,0.5069 -0.18055,1.01282 -0.2759,1.5183 z"
           id="Path-2-1"
           fill="none"
           fill-rule="nonzero" /><path
           d="m 688.31593,285.65994 c -0.19811,0.39656 -0.32782,0.78548 -0.40865,1.1548 -0.36331,-0.26097 -0.73921,-0.49141 -1.08388,-0.65847 -0.0605,-0.33437 -0.11981,-0.65859 -0.17803,-0.97237 0.54059,0.15817 1.0972,0.31973 1.67056,0.47604 z"
           id="Path-3-26"
           fill="none"
           fill-rule="nonzero" /><path
           d="m 687.72386,291.30561 c -0.002,0.0119 -0.005,0.0238 -0.007,0.0357 -0.003,-0.0177 -0.006,-0.0353 -0.009,-0.053 0.005,0.006 0.0105,0.0115 0.0158,0.0173 z"
           id="Path-3-27"
           fill="none"
           fill-rule="nonzero" /><path
           d="m 606.69197,256.51895 c -0.38336,-0.51247 -0.62445,-0.62373 -1.1046,-0.51008 -0.88423,0.20918 -0.84279,-0.68472 0.0495,-1.06805 0.61788,-0.26541 0.64997,-0.35451 0.46499,-1.28891 -0.10942,-0.55225 -0.21152,-1.70083 -0.22668,-2.55256 -0.0154,-0.85173 -0.12762,-1.74705 -0.24917,-1.98959 -0.12939,-0.25802 -0.12509,-0.50508 0.0104,-0.59561 0.11927,-0.0797 0.24273,-0.24019 0.35743,-0.44726 1.04592,1.23175 2.87703,3.05236 5.05747,3.77918 0.28251,0.0942 0.57754,0.14637 0.87183,0.16889 0.0797,0.56792 0.2515,1.15536 0.5807,1.64916 0.64067,0.96101 2.25892,1.68917 3.07166,1.73901 0.70361,0.0431 1.52847,-0.12579 1.96977,-0.23848 0.58922,-0.15047 0.71617,-0.20849 0.66466,-0.25443 0.94209,0.44309 2.2083,2.05815 4.84137,2.93584 0.32521,0.1084 0.70409,0.40261 1.15403,0.79112 -1.37166,-0.1518 -2.50323,-0.13252 -3.46343,-0.17805 -1.50077,-0.0712 -2.53344,-0.209 -4.40025,-1.14241 -0.109,-0.0545 -1.15209,-0.64477 -2.26281,-1.08642 -0.56624,-0.22515 -1.46112,-0.50343 -2.15506,-0.55726 -0.43616,-0.0338 -1.34883,0.0565 -1.90289,0.30213 -0.67156,0.29773 -1.72421,1.46882 -1.93131,2.29722 -0.0374,0.14945 -0.0691,0.30042 -0.0954,0.45256 -0.36781,-0.75695 -0.87117,-1.62995 -1.30219,-2.206 z"
           id="Path-3-28"
           fill="none"
           fill-rule="nonzero" /><path
           d="m 609.55112,265 c -0.10388,0 -0.20775,0 -0.31163,0 0.002,-0.15137 0.002,-0.30337 -0.002,-0.45545 0.10071,0.15912 0.20538,0.31125 0.31339,0.45545 z"
           id="Path-3-29"
           fill="none"
           fill-rule="nonzero" /><path
           d="m 620.4577,264.4524 c 1.77481,0.0842 3.06819,0.0214 4.81469,0.45803 0.1033,0.0258 0.20773,0.0558 0.31334,0.0896 -1.64852,0 -3.29703,0 -4.94555,0 -0.5753,-0.21449 -1.14814,-0.44065 -1.70628,-0.68021 0.54446,0.0711 1.05308,0.11029 1.5238,0.13261 z"
           id="Path-3-30"
           fill="none"
           fill-rule="nonzero" /><path
           d="m 818.56689,437.50986 79.36715,-12.32968 c -1.32879,-2.64697 -2.65044,-5.2615 -3.66214,-7.22319 -3.15493,-6.11738 -6.3586,-12.20892 -9.57157,-18.33875 -6.42595,-12.25966 -12.9066,-24.70719 -18.91102,-37.46485 -3.19603,-6.79061 -5.65023,-18.35615 -8.4834,-23.9538 -1.36506,-0.5456 -3.94122,-1.90331 -5.65083,-4.16681 -9.40949,32.04233 -20.3702,66.52446 -33.08819,103.47708 z"
           id="Path-3-31"
           fill="none"
           fill-rule="nonzero" /><path
           d="m 671.3828,226.22852 c -0.4518,0.95275 -0.10945,1.05718 0.82918,0.25296 0.78643,-0.674 0.82623,-1.08506 0.10503,-1.08506 -0.29667,0 -0.71714,0.37445 -0.93421,0.8321 m 3.72799,9.9257 c -0.0361,1.17575 0.0593,1.34926 0.60215,1.09713 0.35452,-0.16517 0.93533,-0.39402 1.28985,-0.50926 0.35452,-0.11524 0.64491,-0.38567 0.64491,-0.6016 0,-0.21552 -0.18427,-0.26334 -0.40981,-0.10608 -0.22517,0.15726 -0.55424,0.0279 -0.73114,-0.2875 -0.23328,-0.41522 -0.32356,-0.42977 -0.32761,-0.0533 -0.008,0.78342 -0.66445,0.62449 -0.85719,-0.20803 -0.0925,-0.40065 -0.18757,-0.0994 -0.21116,0.66859 m -6.95257,4.07938 c -0.25317,0.11566 -0.46064,0.49092 -0.46064,0.83417 0,0.34325 0.20747,0.54003 0.46064,0.43727 0.25354,-0.10236 0.73374,-0.0283 1.06726,0.16517 0.53177,0.30788 0.55461,0.22383 0.18425,-0.67692 -0.43965,-1.07091 -0.49493,-1.10418 -1.25151,-0.75969 m 5.8938,0.73057 c -0.45475,0.65278 -0.81332,1.48903 -0.79748,1.85849 0.0243,0.56542 0.0615,0.57291 0.23363,0.0479 0.48904,-1.49153 0.85682,-1.62677 2.12343,-0.78301 0.91651,0.61035 1.30458,0.69313 1.508,0.32202 0.15257,-0.27876 0.1183,-0.39151 -0.0774,-0.25462 -0.19311,0.13439 -0.59183,0.0728 -0.88629,-0.13771 -0.4109,-0.29331 -0.32136,-0.38984 0.38621,-0.41481 l 0.9213,-0.0329 -0.86308,-0.39025 c -0.47503,-0.21509 -1.00127,-0.29415 -1.17005,-0.17682 -0.16841,0.11774 -0.36152,-0.10941 -0.42933,-0.50508 -0.1006,-0.59163 -0.2694,-0.50884 -0.94895,0.4668 m 13.17727,-0.37444 c -2.68432,0.8554 -3.74456,1.41956 -3.50134,1.8639 0.1253,0.22925 -0.0192,0.41689 -0.32172,0.41689 -0.93605,0 -1.0783,1.58807 -0.30034,3.36252 0.6217,1.41872 0.65265,1.74449 0.21411,2.23959 -0.28192,0.31869 -0.51299,0.77968 -0.51299,1.02515 0,0.24505 -0.2071,0.4539 -0.46064,0.4643 -0.25317,0.0104 -1.45567,1.05926 -2.6718,2.33072 l -2.21114,2.31198 3.20247,-1.78694 c 2.27453,-1.26936 3.26179,-2.05402 3.40736,-2.70847 0.15515,-0.69688 0.39544,-0.86498 0.98876,-0.68982 0.77796,0.22966 0.7772,0.23632 -0.0907,0.82254 -0.62833,0.42436 -0.66701,0.50923 -0.13745,0.30163 0.40537,-0.15893 2.02503,-0.3836 3.59936,-0.49884 2.15955,-0.15769 3.26512,-0.0354 4.50372,0.49844 4.46613,1.92548 5.12874,7.79799 1.11294,9.85745 -3.11734,1.59887 -10.5593,0.77179 -16.77628,-1.86473 -1.82124,-0.77219 -3.31118,-1.2831 -3.31118,-1.13581 0,0.78301 6.27484,3.78105 9.5816,4.57821 2.35634,0.5679 8.72993,0.64196 9.34537,0.10859 0.23143,-0.20011 1.4984,-0.69648 2.81588,-1.10295 2.93307,-0.90407 4.74916,-2.32363 6.1326,-4.79206 2.11347,-3.77149 1.15238,-9.35239 -2.19971,-12.77107 -2.39614,-2.4443 -4.78269,-3.46237 -7.98663,-3.40704 -1.52015,0.0262 -3.51019,0.28542 -4.42228,0.57582 m -38.69491,0.3628 c -2.73223,0.68607 -4.86155,1.99995 -6.19045,3.81975 -1.39891,1.91591 -2.43114,5.51848 -2.10463,7.34494 0.32061,1.79276 1.358,4.96432 1.55221,4.74506 0.084,-0.0944 -0.10576,-0.87039 -0.42158,-1.72412 -1.21797,-3.29054 -0.29924,-8.51446 1.8732,-10.65338 2.02319,-1.99204 5.14789,-3.25018 9.52926,-3.83764 0.68729,-0.0924 0.47835,-0.15853 -0.55278,-0.17558 -0.91209,-0.0154 -2.57045,0.20139 -3.68523,0.48097 m 48.09225,1.43869 c 3.20136,1.60013 5.39629,5.23932 5.39592,8.94592 0,2.56745 -0.38474,3.82431 -1.71843,5.61333 -0.94268,1.26521 -3.02815,2.80959 -3.33108,2.4676 -0.0759,-0.0857 0.0387,-0.80631 0.25465,-1.6018 0.79932,-2.93939 -1.23013,-7.2559 -4.03238,-8.5777 -0.76321,-0.3603 -2.5734,-0.58121 -4.75726,-0.58121 h -3.52567 l 0.9976,-1.17535 c 1.2106,-1.42705 1.40296,-3.62504 0.39027,-4.46131 -0.37148,-0.30662 -0.57157,-0.67482 -0.4448,-0.81836 1.12841,-1.27353 8.08907,-1.15164 10.77118,0.18888 m -18.97893,-0.087 c 0,0.3112 0.32172,0.56625 0.7153,0.56625 1.08861,0 1.24193,-0.71021 0.20158,-0.93488 -0.6136,-0.13231 -0.91688,-0.0104 -0.91688,0.36863 m -18.59641,1.07549 c 0.6674,1.23776 0.49788,1.61011 -1.24081,2.72929 -1.21281,0.78051 -1.65211,0.24422 -1.4192,-1.73244 0.14962,-1.26562 0.10614,-1.52108 -0.16473,-0.97688 -0.20195,0.40523 -0.31544,1.3243 -0.25243,2.0424 0.0954,1.08465 0.4216,1.49193 1.92517,2.40433 0.99575,0.60411 1.85109,1.41169 1.90047,1.79403 0.14962,1.15038 2.2679,3.01967 4.22033,3.72446 1.59791,0.57706 1.83487,0.58333 1.83487,0.0487 0,-0.43726 -0.23844,-0.53838 -0.82918,-0.35074 -0.54947,0.17433 -0.6674,0.13603 -0.34973,-0.11359 0.35084,-0.27583 -0.20711,-0.94192 -2.08178,-2.4863 -1.4085,-1.16037 -2.9257,-2.3299 -3.37124,-2.59908 l -0.81039,-0.48968 0.7728,-0.61119 c 0.98285,-0.77718 0.98912,-2.27288 0.0144,-3.53434 l -0.75917,-0.98229 0.61065,1.13332 m 10.84048,-0.0574 c -0.22628,0.47721 -0.31509,0.97647 -0.19716,1.10919 0.11793,0.13314 0.21409,0.0366 0.21409,-0.21385 0,-0.25046 0.26057,-0.74972 0.57897,-1.1096 0.31877,-0.35947 0.40758,-0.65361 0.19753,-0.65361 -0.21005,0 -0.56715,0.39066 -0.79343,0.86787 m 16.23195,1.05427 c 0,0.77302 -1.06576,1.8223 -1.85072,1.8223 -1.64693,0 -1.55036,-2.57659 0.1242,-3.31384 0.8347,-0.36696 1.72652,0.40357 1.72652,1.49154 m -15.03757,1.61427 c 0.007,0.68648 0.0899,0.917 0.18353,0.51217 0.0936,-0.40483 0.0873,-0.96648 -0.0136,-1.24815 -0.10098,-0.28167 -0.17725,0.0495 -0.16988,0.73598 m -19.97211,3.19028 c -2.37034,0.75554 -1.83673,0.97023 2.41419,0.97023 2.32059,0 4.21922,-0.1402 4.21922,-0.31203 0,-0.17183 -0.16584,-0.33534 -0.36853,-0.36405 -0.20269,-0.0287 -0.52072,-0.0753 -0.70646,-0.10402 -0.18574,-0.0287 -0.46212,-0.1922 -0.61395,-0.36403 -0.38106,-0.4302 -3.37973,-0.32453 -4.94447,0.1739 m 6.81768,-0.0699 c 0.1253,0.22883 0.39358,0.41606 0.59627,0.41606 0.20269,0 0.26607,-0.18723 0.14077,-0.41606 -0.1253,-0.22883 -0.39358,-0.41605 -0.59627,-0.41605 -0.20269,0 -0.26607,0.18722 -0.14077,0.41605 m -11.72125,9.36113 c 0.24875,1.37296 0.68951,1.85598 1.70074,1.86597 0.40944,0.004 0.56532,0.19182 0.40391,0.4868 -0.17136,0.31246 -0.10026,0.36652 0.20341,0.15434 0.26313,-0.18347 0.58632,-0.10734 0.74073,0.17474 0.4835,0.88328 5.66605,1.4125 8.75427,0.8941 3.14572,-0.52839 8.11709,-2.35236 8.947,-3.28264 0.4905,-0.55002 0.46985,-0.58331 -0.18427,-0.29873 -3.77109,1.64006 -6.97722,2.3873 -11.13675,2.59574 -4.63344,0.23174 -6.05706,-0.0507 -7.62918,-1.51483 -0.59406,-0.55293 -0.66407,-0.55877 -0.43337,-0.0354 0.15146,0.34325 0.0192,0.26878 -0.29335,-0.16517 -0.31251,-0.43435 -0.46508,-0.97813 -0.33868,-1.20862 0.12603,-0.23049 0.052,-0.29539 -0.16471,-0.14395 -0.2167,0.15103 -0.48462,0.0395 -0.59518,-0.24797 -0.11056,-0.28749 -0.0991,0.0391 0.0254,0.72559 m 22.59268,-0.7281 c 0,0.17183 0.39874,0.31206 0.88629,0.31206 0.48718,0 0.8089,-0.14023 0.71493,-0.31206 -0.0936,-0.17183 -0.49234,-0.31203 -0.88592,-0.31203 -0.39358,0 -0.7153,0.1402 -0.7153,0.31203 m 6.01908,3.62339 c 0,0.32785 0.22959,0.46223 0.55205,0.32286 0.33535,-0.14562 0.45587,-0.0645 0.30735,0.20718 -0.1371,0.25046 0.19937,0.64323 0.76873,0.8966 0.55721,0.24797 1.26184,0.61866 1.56586,0.82461 1.94543,1.31555 5.45304,2.37231 9.76586,2.94188 2.04125,0.26961 13.98139,0.43853 31.04806,0.43936 24.4047,0.001 27.73134,-0.0737 27.73134,-0.62283 0,-0.54918 -3.35023,-0.6249 -27.91561,-0.63115 -15.97105,-0.004 -29.41365,-0.18514 -31.41658,-0.42312 -4.18826,-0.4976 -7.84328,-1.48073 -9.35017,-2.51544 -0.60548,-0.41563 -1.23676,-0.66067 -1.40296,-0.5446 -0.16657,0.11607 -0.30256,0.0191 -0.30256,-0.21511 0,-0.23424 -0.30402,-0.60951 -0.6755,-0.83418 -0.50009,-0.30204 -0.67587,-0.26212 -0.67587,0.15394 m 80.76807,4.75837 c -2.64121,0.65486 1.05214,0.83126 18.10627,0.86372 9.88194,0.0187 18.05985,0.13813 18.17262,0.26543 0.11277,0.1273 0.2878,16.92533 0.38915,37.32925 0.11793,23.77101 0.26127,33.51075 0.39837,27.11273 0.11756,-5.49185 0.25097,-22.57572 0.2963,-37.96457 l 0.0826,-27.97936 -18.16966,0.0491 c -9.99361,0.027 -18.66754,0.17266 -19.2756,0.32369 m -29.1133,3.35794 c -10.13439,0.12191 -18.09448,0.3474 -17.68911,0.50091 1.61708,0.612 41.14154,0.56793 39.80048,-0.0445 -1.38122,-0.63072 -3.68707,-0.67816 -22.11137,-0.45641 m 26.88706,0.0416 c -0.13377,0.2438 -0.16068,0.53628 -0.0601,0.64987 0.1006,0.11359 8.20186,0.24172 18.00236,0.28458 l 17.81956,0.0778 0.23511,35.15622 c 0.21633,32.34122 0.51594,48.61961 0.90289,49.05978 0.084,0.0957 0.14519,-19.14121 0.13598,-42.74912 l -0.017,-42.92305 H 771.9951 c -12.62597,0 -18.46447,0.13895 -18.63104,0.44392 m -155.96224,0.67484 c 0.35452,0.10484 0.9353,0.10484 1.28982,0 0.35452,-0.10443 0.0645,-0.19014 -0.64491,-0.19014 -0.70941,0 -0.99943,0.0857 -0.64491,0.19014 m 8.84454,0.0225 c 1.57065,0.0782 4.14146,0.0782 5.71211,0 1.57065,-0.0778 0.2856,-0.14188 -2.85605,-0.14188 -3.14165,0 -4.42671,0.0641 -2.85606,0.14188 m 10.13439,-0.005 c 0.86124,0.0878 2.2712,0.0878 3.13244,0 0.86124,-0.0874 0.15664,-0.15934 -1.56621,-0.15934 -1.72285,0 -2.42747,0.072 -1.56623,0.15934 m 97.01367,3.16323 c 0,0.10734 0.5351,0.40607 1.18922,0.66318 0.65412,0.25754 1.02745,0.29706 0.82918,0.0878 -0.41975,-0.44351 -2.0184,-1.03846 -2.0184,-0.75097 m 34.62422,0.50757 c -0.26166,0.35613 -1.56733,1.37837 -2.90102,2.27164 -3.10702,2.08109 -7.55621,3.31551 -11.963,3.31925 -3.67417,0.003 -10.888,-1.6201 -13.25355,-2.98225 -0.78017,-0.44976 -1.50947,-0.71519 -1.62003,-0.58996 -0.11056,0.12482 0.11275,0.35822 0.49639,0.51882 0.38364,0.16019 0.78054,0.40814 0.88189,0.55126 0.84207,1.18866 6.93154,3.19736 11.51633,3.79896 3.32481,0.43643 4.26492,0.40691 7.41469,-0.2334 3.87649,-0.788 7.46996,-2.53626 9.9059,-4.8187 1.60492,-1.50403 1.85257,-2.42058 0.36852,-1.36423 l -1.01344,0.72144 0.70204,-0.91989 c 0.3862,-0.50592 0.53067,-0.91988 0.32135,-0.91988 -0.20895,0 -0.59441,0.29122 -0.85607,0.64694 m -31.67603,1.01726 c 0.30402,0.22175 0.71861,0.40315 0.9213,0.40315 0.20269,0 0.11977,-0.1814 -0.18425,-0.40315 -0.30402,-0.22175 -0.71863,-0.40316 -0.92132,-0.40316 -0.20269,0 -0.11975,0.18141 0.18427,0.40316 m -116.18313,3.79603 c 0.25022,0.28458 0.54761,0.4123 0.66075,0.28416 0.11351,-0.12814 -0.091,-0.3607 -0.45438,-0.51714 -0.52514,-0.22549 -0.56752,-0.17807 -0.20637,0.23298 m 3.04658,0.15644 c 0.50672,0.32701 1.25298,0.59288 1.65835,0.59121 0.40537,-0.002 0.0737,-0.27335 -0.73705,-0.60327 -1.84667,-0.75097 -2.09835,-0.74765 -0.9213,0.0121 m 2.85605,0.8995 c 0.25354,0.11566 0.66813,0.11566 0.9213,0 0.25354,-0.11524 0.0461,-0.2097 -0.46066,-0.2097 -0.50672,0 -0.71381,0.0945 -0.46064,0.2097 m -53.61199,6.79741 c 0,1.02973 0.0719,1.4512 0.15994,0.93612 0.0877,-0.51508 0.0877,-1.35714 0,-1.87222 -0.0881,-0.51508 -0.15994,-0.0936 -0.15994,0.9361 m 164.26101,0 c -1.53785,1.73617 -0.57415,4.75505 1.66905,5.23018 0.70351,0.14936 1.27914,0.5059 1.27914,0.79256 0,0.53337 -0.96774,2.05447 -2.47352,3.88883 -1.41366,1.72245 -0.96592,2.26124 0.94967,1.14289 0.56089,-0.32744 1.50432,-1.3846 2.09654,-2.34984 0.89662,-1.46034 1.09929,-2.25958 1.21169,-4.77003 0.11756,-2.62944 0.0354,-3.12828 -0.64049,-3.89131 -1.01527,-1.14623 -3.0956,-1.16828 -4.09208,-0.0433 M 594.3615,302.98973 v 15.60188 l 1.01345,4.1e-4 h 1.01343 l -0.1043,-10.40125 c -0.0575,-5.7211 0.0335,-10.40166 0.20233,-10.40166 0.32688,0 14.16382,15.71212 18.13649,20.59447 l 2.36997,2.91235 3.70144,-0.0749 c 2.37292,-0.0483 3.37125,0.0491 2.78051,0.27042 -0.50672,0.19014 -1.97749,0.36405 -3.26843,0.38694 l -2.34675,0.0416 1.12141,1.29516 c 0.61691,0.71228 2.58518,3.22565 4.37399,5.58548 1.78881,2.35983 3.3801,4.15092 3.53635,3.97993 0.15625,-0.17059 0.28045,-9.84708 0.27566,-21.50271 l -0.008,-21.19233 0.93678,-1.14081 0.93716,-1.14081 -3.42394,0.0137 c -3.29864,0.0133 -3.39557,0.0403 -2.65852,0.73599 1.85736,1.75406 1.90379,2.0686 2.14996,14.64413 0.12789,6.52158 0.32428,13.63603 0.43668,15.80989 0.1124,2.17386 0.0671,3.73572 -0.10023,3.47112 -1.95243,-3.08709 -29.86619,-35.0909 -30.60619,-35.0909 -0.3711,0 -0.46877,3.25641 -0.46877,15.60186 m 55.27845,-15.18041 c -3.74972,0.1377 -6.88439,0.28625 -6.9662,0.33035 -0.0818,0.0441 0.21191,0.43311 0.65266,0.86455 0.6029,0.59037 0.67698,0.83791 0.29962,1.00142 -0.53952,0.23381 -0.58927,1.42039 -0.0969,2.31948 0.24286,0.44392 0.15257,0.46307 -0.45403,0.0969 -1.08899,-0.65819 -1.1273,-0.61119 -0.80632,0.9956 0.21042,1.0526 0.17432,1.37131 -0.13082,1.15579 -1.6064,-1.13416 -1.70407,-0.007 -1.70775,19.75364 -0.003,15.12591 -0.0383,15.95343 -0.70976,16.71148 -0.38841,0.43852 -0.60955,0.90656 -0.49125,1.04011 0.1183,0.13355 5.98518,0.24256 13.03761,0.24256 h 12.82276 l 0.40206,-1.7682 c 0.22112,-0.9723 0.63533,-2.70225 0.92093,-3.8439 0.58115,-2.32489 0.17138,-3.4478 -0.5454,-1.49444 -0.69871,1.90509 -3.39817,4.50913 -5.03293,4.85529 -2.22735,0.4718 -13.67809,0.43643 -14.10779,-0.0437 -0.23438,-0.26212 -0.39247,-4.10432 -0.41643,-10.12456 l -0.0387,-9.70229 6.7204,0.0528 c 7.28976,0.0566 8.3124,0.32785 9.16038,2.4289 0.22775,0.56416 0.49602,0.93238 0.59662,0.81879 0.30181,-0.34032 0.3652,-9.0545 0.066,-9.0545 -0.1522,4.1e-4 -0.27639,0.17931 -0.27639,0.39774 0,0.61867 -1.82638,2.52875 -2.82951,2.95936 -0.49713,0.21344 -3.71214,0.38777 -7.14456,0.38777 h -6.24094 v -9.39732 -9.39775 l 7.64685,0.15685 c 8.61275,0.17681 9.24182,0.35449 10.36877,2.92526 l 0.71862,1.64008 0.12234,-3.19319 c 0.0674,-1.75656 0.0534,-3.27058 -0.0313,-3.36502 -0.1769,-0.19763 -5.76222,-0.10775 -15.50855,0.25005 m 25.32969,-0.0978 -5.07383,0.11609 1.48736,1.75614 c 1.71068,2.02075 2.90988,3.92168 9.97298,15.81072 l 5.13609,8.64512 v 8.10089 c 0,7.42815 -0.0586,8.16667 -0.70646,8.89808 -0.38841,0.43852 -0.65156,0.85955 -0.58485,0.9361 0.0671,0.0762 2.12712,0.0807 4.57853,0.01 l 4.45657,-0.12856 -1.05988,-1.00727 -1.06024,-1.00683 -0.1662,-8.1812 -0.1662,-8.18121 3.37345,-6.28486 c 7.46996,-13.91811 8.74248,-15.96715 11.1294,-17.92425 1.70479,-1.39752 2.01472,-2.11104 0.75105,-1.7287 -0.45587,0.1377 -2.06448,0.25339 -3.57468,0.2563 -2.13522,0.005 -2.6471,0.1169 -2.30328,0.50508 1.01492,1.1458 0.39285,2.88448 -3.86986,10.82022 -2.37181,4.41471 -4.65222,8.61223 -5.06717,9.32742 -0.41532,0.71519 -0.93128,1.63756 -1.14686,2.04987 -0.33573,0.64197 -0.82732,-0.0204 -3.43683,-4.62896 -1.67493,-2.95812 -4.09652,-7.21099 -5.38155,-9.45058 -2.90839,-5.0704 -3.24373,-6.071 -2.54318,-7.59499 0.28967,-0.63032 0.48203,-1.16495 0.42786,-1.18825 -0.0542,-0.0229 -2.38176,0.01 -5.17222,0.0736 m 64.17791,0.25089 c -4.26307,1.71954 -6.49816,5.11325 -6.85268,10.40332 -0.16694,2.49546 -0.0645,3.33008 0.6357,5.16777 1.2246,3.21358 3.35208,5.06706 10.11448,8.81318 3.25149,1.80108 6.36808,3.7636 6.92565,4.36062 3.10664,3.32922 3.28501,8.66923 0.39063,11.69765 -1.61597,1.69124 -3.35244,2.32489 -6.56376,2.3952 -5.48989,0.12065 -10.70522,-3.06171 -12.18485,-7.43564 -0.34605,-1.02348 -0.78975,-1.86057 -0.98617,-1.86057 -0.43375,0 0.0111,6.68341 0.48241,7.24674 0.31803,0.38027 0.77427,0.59538 5.68668,2.68062 2.27304,0.96524 3.10553,1.09379 7.00193,1.08048 3.95388,-0.0129 4.63712,-0.12731 6.44915,-1.07841 2.2959,-1.2053 4.11715,-3.12245 5.28278,-5.56091 0.65561,-1.37131 0.79601,-2.35983 0.79675,-5.61667 10e-4,-3.56346 -0.0988,-4.14386 -1.01197,-5.89792 -1.43834,-2.76258 -3.07496,-4.1347 -8.93705,-7.49264 -9.16075,-5.24721 -10.50291,-6.65681 -10.50291,-11.03033 0,-3.86343 2.16913,-5.96574 6.47606,-6.27777 4.75101,-0.34449 8.20406,1.30888 9.36969,4.48542 0.65228,1.77736 1.25188,1.5864 0.97438,-0.30996 -0.12566,-0.8579 -0.23033,-2.3174 -0.23254,-3.2431 l -0.004,-1.68292 -3.04031,-0.71102 c -3.56363,-0.83377 -8.37837,-0.8966 -10.27,-0.13314 m -186.69743,5.25012 c 0,1.02973 0.0719,1.4512 0.15994,0.93612 0.0877,-0.51508 0.0877,-1.35714 0,-1.87222 -0.0881,-0.51508 -0.15994,-0.0936 -0.15994,0.9361 m 0.36852,13.3136 c 0,1.02973 0.0719,1.4512 0.15995,0.93612 0.0877,-0.51508 0.0877,-1.35714 0,-1.87222 -0.0881,-0.51508 -0.15995,-0.0936 -0.15995,0.9361 m -11.67812,5.63167 c -7.59231,3.04924 -11.48246,5.44775 -14.78589,9.11648 -5.49615,6.10345 -5.04324,13.29486 1.11183,17.65798 2.64342,1.87347 4.79745,2.54208 8.19007,2.54208 2.06004,0 2.58998,-0.14106 2.94487,-0.78261 0.41165,-0.74348 0.26092,-0.78549 -3.02816,-0.84831 -6.66253,-0.1273 -11.05346,-2.92443 -11.94861,-7.61165 -0.40979,-2.14515 -0.20969,-4.03318 0.62612,-5.90665 1.74348,-3.90795 7.60998,-8.52528 14.59128,-11.48506 1.79323,-0.75971 3.34693,-1.63674 3.4527,-1.94794 0.10577,-0.31163 0.6287,-0.8342 1.16233,-1.16121 1.44939,-0.8891 0.54468,-0.72265 -2.31654,0.42689 m 4.13852,0.0611 c 0.26571,0.12024 0.58374,0.10526 0.70609,-0.0329 0.12235,-0.13813 -0.0951,-0.23631 -0.48351,-0.21842 -0.42933,0.02 -0.51667,0.11857 -0.22258,0.25129 m -4.35338,0.96398 c -0.30402,0.22175 -0.71861,0.40316 -0.9213,0.40316 -0.20269,0 -0.11975,-0.18141 0.18427,-0.40316 0.30402,-0.22175 0.71861,-0.40314 0.9213,-0.40314 0.20269,0 0.11975,0.18139 -0.18427,0.40314 m 11.52446,6.6568 c 0,1.02973 0.0719,1.4512 0.15994,0.93612 0.0877,-0.51508 0.0877,-1.35715 0,-1.87223 -0.0881,-0.51508 -0.15994,-0.0936 -0.15994,0.93611 m -0.17062,3.22438 c -0.0859,0.40025 -0.049,2.50671 0.0818,4.68057 l 0.23769,3.95248 0.0597,-4.68057 c 0.0571,-4.49 -0.042,-5.52348 -0.3792,-3.95248 m 42.28874,1.01101 c -0.0873,0.30204 -0.21816,1.80232 -0.29076,3.3338 -0.094,1.97541 -0.33203,3.03384 -0.81849,3.64045 l -0.68583,0.85582 h 2.66185 2.66185 l -0.74442,-1.18033 c -0.51335,-0.81421 -0.79676,-2.07278 -0.91321,-4.0565 -0.14852,-2.52543 -0.26312,-2.89237 -0.94083,-3.00928 -0.42454,-0.0732 -0.84282,0.114 -0.93016,0.41604 m -48.07788,5.62707 c 0.26866,0.50425 0.56752,0.82752 0.66445,0.7181 0.0969,-0.10942 -0.12272,-0.52214 -0.48792,-0.91738 -0.6346,-0.68607 -0.64271,-0.67734 -0.17653,0.19928 m -2.61651,9.27584 c -0.33205,0.24214 -0.37774,0.40566 -0.11387,0.40981 0.24138,0.003 0.54136,-0.18098 0.66666,-0.40981 0.28266,-0.51673 0.15514,-0.51673 -0.55279,0 m -3.68522,0.41606 c -0.77352,0.27958 -0.80301,0.34199 -0.18427,0.38942 0.66555,0.0507 0.64751,0.11399 -0.18425,0.6507 -0.67108,0.43311 -0.75217,0.59868 -0.29814,0.6095 0.34273,0.008 0.71272,-0.14936 0.82254,-0.34947 0.10945,-0.20011 0.62907,-0.36405 1.15495,-0.36405 0.52551,0 1.14537,-0.21426 1.37717,-0.47595 0.31619,-0.35697 0.10244,-0.4198 -0.85682,-0.25212 -0.98138,0.17183 -1.10704,0.13228 -0.54136,-0.17102 0.91136,-0.48803 0.028,-0.51338 -1.28982,-0.037 m -3.78511,1.49944 c -0.12235,0.13813 -0.44038,0.15311 -0.70609,0.0329 -0.29409,-0.13272 -0.20675,-0.23133 0.22258,-0.25129 0.38841,-0.0179 0.60586,0.0803 0.48351,0.21842 m 58.19089,9.62823 c -3.14019,0.13396 -3.24447,0.16932 -2.65778,0.90073 0.53547,0.66818 0.63791,2.64151 0.83802,16.10905 0.1732,11.64399 0.11866,15.72377 -0.22665,16.9041 -0.25022,0.85582 -0.60769,1.55604 -0.7949,1.55604 -0.18683,0 -0.33978,0.18721 -0.33978,0.41604 0,0.26751 3.6797,0.41606 10.30243,0.41606 h 10.3028 l 0.93714,-3.35004 c 0.51556,-1.84227 0.93605,-3.85513 0.93384,-4.47254 -0.003,-0.94569 -0.13967,-0.79216 -0.8686,0.9748 -1.00864,2.44554 -2.64453,4.14386 -4.57485,4.74921 -2.04936,0.64238 -11.13272,0.57291 -11.1504,-0.0857 -0.008,-0.28582 -0.032,-7.68321 -0.0538,-16.43815 -0.0354,-14.23224 0.0247,-15.99836 0.56678,-16.67485 0.63975,-0.79799 0.79418,-1.37339 0.33021,-1.22944 -0.1522,0.047 -1.74718,0.14813 -3.54446,0.22468 m 182.38017,4.34979 c -0.1371,2.58534 -0.19568,7.32206 -0.12971,10.52565 0.066,3.20359 0.0785,8.86728 0.0276,12.58552 -0.0822,6.02441 -0.16915,6.84776 -0.79785,7.55754 -0.69578,0.7855 -0.67257,0.79925 1.56621,0.95276 1.24967,0.0857 2.34159,0.10069 2.42709,0.0337 0.0851,-0.0674 -0.20748,-0.55793 -0.65044,-1.09006 -0.79638,-0.95692 -0.80449,-1.1096 -0.70793,-13.57696 l 0.0976,-12.6088 12.16128,14.18356 12.16126,14.18397 0.18425,-17.82816 c 0.16657,-16.12319 0.24507,-17.90428 0.82034,-18.62155 0.61874,-0.77095 0.58042,-0.79217 -1.3816,-0.77095 -1.10962,0.0116 -2.01766,0.047 -2.01803,0.0782 -3.7e-4,0.0308 0.24728,0.59245 0.55021,1.24814 0.45329,0.98105 0.55094,3.44574 0.55278,13.95433 l 0.002,12.76316 -9.70248,-11.09896 c -5.33658,-6.10428 -10.76197,-12.40913 -12.05659,-14.01091 -1.29462,-1.60178 -2.46727,-2.96851 -2.60546,-3.03674 -0.13819,-0.0687 -0.36373,1.99079 -0.50083,4.57654 m -209.70431,-3.49565 c -4.48234,1.74991 -8.54162,5.72694 -10.55302,10.33926 -1.18517,2.71806 -1.23492,3.02593 -1.23234,7.62578 0.003,4.49 0.0726,4.95057 1.10557,7.27546 1.56549,3.5227 4.72668,7.03249 7.70839,8.55898 5.67305,2.90403 13.02287,2.40103 19.51182,-1.33593 l 1.7947,-1.03347 -0.0641,-4.89442 c -0.0516,-3.91711 0.056,-5.102 0.53803,-5.93202 0.33093,-0.57081 0.54728,-1.06844 0.48057,-1.10588 -0.0671,-0.0374 -1.71992,-0.009 -3.67382,0.0637 l -3.55183,0.13147 0.89183,1.00684 c 0.85645,0.96689 0.88779,1.20239 0.78828,5.90125 l -0.10393,4.89442 -1.77886,0.99561 c -2.18644,1.22402 -7.58642,1.68374 -10.5007,0.8945 -5.21239,-1.41166 -8.72293,-7.16353 -9.1751,-15.03395 -0.62095,-10.80815 5.2625,-18.08404 14.00681,-17.32184 4.24059,0.36946 8.01466,2.73594 9.10548,5.70863 0.25243,0.68774 0.56308,1.25066 0.69022,1.25107 0.12751,8.3e-4 0.178,-1.59057 0.11277,-3.53644 -0.11166,-3.31176 -0.17062,-3.53767 -0.9213,-3.54432 -0.44149,-0.004 -2.04604,-0.37527 -3.56619,-0.82503 -3.58168,-1.05968 -9.0126,-1.09879 -11.61327,-0.0836 m 61.73682,8.09259 c -2.10279,4.8628 -5.35391,12.40287 -7.22453,16.756 -1.87062,4.35354 -3.83818,8.40836 -4.37216,9.01122 l -0.97105,1.09629 2.22882,0.14188 c 2.23398,0.14228 2.709,-0.18765 1.7807,-1.23567 -0.34936,-0.39441 0.0243,-1.5785 1.72175,-5.45442 2.54245,-5.80515 1.91335,-5.44151 9.41169,-5.44151 7.49981,0 6.86817,-0.36572 9.41762,5.45524 1.80391,4.11889 2.10205,5.0937 1.75158,5.72776 -0.39653,0.71643 -0.20046,0.77926 3.1343,1.00393 1.95648,0.13148 3.62368,0.16434 3.70475,0.0728 0.0811,-0.0915 -0.4039,-0.87455 -1.07756,-1.74035 -1.12953,-1.45161 -15.08807,-32.69153 -15.08807,-33.76786 0,-1.43496 -0.9751,0.41356 -4.41784,8.37468 m 25.39675,-7.74477 c 0.74258,1.0655 0.76396,1.54064 0.76396,16.97942 0,15.40966 -0.0225,15.91057 -0.75142,16.79385 -0.41311,0.50092 -0.7035,0.91865 -0.64491,0.92821 1.30236,0.21468 4.71302,0.20846 4.71302,-0.009 0,-0.16267 -0.33167,-0.63491 -0.73704,-1.04887 -0.70462,-0.71977 -0.73705,-1.28144 -0.73705,-12.7199 0,-6.58191 0.10468,-12.27473 0.23219,-12.65042 0.15699,-0.4614 1.51352,2.06237 4.17499,7.76683 7.74119,16.59374 8.94626,19.10043 9.09883,18.92819 0.0848,-0.0957 1.64803,-3.48693 3.47369,-7.53592 1.82603,-4.04859 4.08434,-8.89431 5.01929,-10.7682 4.26897,-8.5569 5.45157,-11.52001 4.59733,-11.52001 -0.71383,0 -4.73773,7.42441 -9.10363,16.79636 l -2.4949,5.35498 -0.87857,-1.61053 c -1.6532,-3.03133 -7.81931,-16.10404 -10.51763,-22.29737 l -1.94323,-4.4613 -2.51444,-0.0112 -2.51406,-0.0116 0.76358,1.09629 m 61.96678,0.0786 c 0.67145,0.96357 0.70904,1.85809 0.70904,16.92326 0,15.48164 -0.0203,15.93514 -0.7669,17.00646 l -0.7669,1.10044 7.49245,-0.17641 c 7.97963,-0.18805 10.2372,-0.60492 13.78459,-2.54413 2.66294,-1.45576 5.39481,-4.63397 6.84827,-7.96737 1.18075,-2.70766 1.23197,-3.02386 1.23197,-7.61829 0,-4.4014 -0.0866,-5.00509 -1.05914,-7.38197 -1.87725,-4.58821 -6.41192,-8.40131 -11.53992,-9.70437 -0.97547,-0.24755 -5.11878,-0.49636 -9.20792,-0.55252 l -7.43421,-0.10233 0.70867,1.01723 m 33.41544,-0.3682 0.82918,0.88993 v 16.36699 c 0,14.04043 -0.0785,16.44021 -0.55278,16.88455 -0.30402,0.28499 -0.55279,0.68233 -0.55279,0.88287 0,0.20095 4.53209,0.36529 10.07174,0.36529 h 10.07136 l 0.64123,-3.36876 c 0.69171,-3.63379 0.5819,-4.63564 -0.26238,-2.39687 -1.22829,3.25808 -3.05691,4.07937 -9.09774,4.08562 -6.08395,0.007 -5.52783,0.82629 -5.52783,-8.14584 v -7.64826 l 4.88292,0.0146 c 5.23044,0.0158 6.26785,0.32368 7.11655,2.11145 0.41865,0.88161 0.48571,0.5571 0.59332,-2.85492 0.11461,-3.63753 -0.1076,-4.8757 -0.53951,-3.01013 -0.33905,1.46408 -2.33903,2.02575 -7.48066,2.10064 l -4.75689,0.0699 v -7.64074 -7.64076 l 4.97505,-0.12275 c 5.98998,-0.14769 7.87792,0.31205 8.89689,2.16639 l 0.70646,1.28475 -0.10319,-2.47424 -0.10282,-2.47384 -10.31864,-0.16766 -10.31864,-0.16768 0.82917,0.88952 m -18.8868,1.7682 c 5.89231,1.44369 9.61218,6.75875 10.04225,14.34958 0.52219,9.21467 -4.00584,15.94469 -11.55724,17.17703 -2.98871,0.48761 -6.7915,0.54545 -7.36714,0.11234 -0.27602,-0.20803 -0.48681,-5.38409 -0.65929,-16.1885 l -0.25354,-15.88313 0.84353,-0.19637 c 1.23197,-0.28707 6.81289,0.10483 8.95143,0.62905 m -46.74051,7.36908 c -0.13524,1.46284 -0.24617,7.45812 -0.24617,13.32317 0,8.82732 -0.0958,10.81814 -0.55536,11.55871 -0.555,0.89451 -0.55278,0.89534 2.85605,1.02889 1.87616,0.0736 3.4796,0.0882 3.56289,0.032 0.0829,-0.0558 -0.16585,-0.49634 -0.5528,-0.97896 -0.64712,-0.80672 -0.71898,-1.80857 -0.8885,-12.37998 -0.10135,-6.32645 -0.0969,-11.55079 0.01,-11.61029 0.10651,-0.0591 0.13304,-0.82337 0.059,-1.69873 -0.15478,-1.83602 -1.17044,-2.28037 -1.17965,-0.51632 -0.004,0.84667 -0.0814,0.94235 -0.36299,0.45057 -0.31767,-0.5546 -0.35892,-0.5546 -0.37404,0 -0.0133,0.49219 -0.0962,0.47015 -0.39248,-0.104 -0.20674,-0.40025 -0.60255,-0.72809 -0.87931,-0.72809 -0.27713,0 -0.57269,-0.23341 -0.65708,-0.5184 -0.084,-0.28499 -0.2635,0.67856 -0.39911,2.1414 m -49.56781,5.04295 c 1.67935,3.77066 3.11254,6.99588 3.18551,7.16771 0.0726,0.17183 -2.7186,0.31203 -6.20298,0.31203 -5.02555,0 -6.29731,-0.11106 -6.15211,-0.53752 0.42086,-1.23816 5.95237,-13.98219 6.0305,-13.894 0.0472,0.0532 1.45973,3.18153 3.13908,6.95178 m 155.11979,21.70657 c 0.0147,0.52755 -0.0962,9.52129 -0.24617,19.98662 l -0.27306,19.02764 -32.09431,0.17016 c -36.04376,0.19138 -34.12117,0.1527 -34.12117,0.69189 0,0.25213 12.42843,0.39941 33.71985,0.39941 H 790.4165 V 407.2348 c 0,-13.03484 -0.13157,-20.45385 -0.36595,-20.61736 -0.20416,-0.14228 -0.35417,0.16849 -0.33905,0.70353 m -234.68094,5.74357 c 0,1.02973 0.0719,1.45077 0.15994,0.93612 0.0877,-0.51465 0.0877,-1.35757 0,-1.87222 -0.0881,-0.51465 -0.15994,-0.0936 -0.15994,0.9361 m 237.35311,1.45619 c 0.13489,8.58061 -0.16584,34.16891 -0.40648,34.59246 -0.199,0.3499 -11.49128,0.55792 -42.64142,0.78467 -23.30392,0.16975 -43.20416,0.44725 -44.22276,0.61617 -1.0186,0.16892 18.33843,0.33077 43.01547,0.35906 l 44.86768,0.052 -0.0324,-17.78614 c -0.0177,-9.78257 -0.16732,-18.72224 -0.33242,-19.86637 -0.27344,-1.89636 -0.29518,-1.78568 -0.24764,1.24816 m -240.06029,16.64199 c -0.11645,5.49185 -0.15811,10.06341 -0.0921,10.15868 0.41458,0.6012 0.49088,-1.33384 0.40244,-10.20111 l -0.0988,-9.94276 -0.21153,9.98519 m 166.78392,-8.23946 c -1.21613,0.0732 -2.62572,0.24922 -3.13244,0.3915 l -0.92132,0.2588 1.10557,0.43559 c 0.71862,0.28291 11.07229,0.49218 29.57398,0.59745 l 28.46839,0.16227 v -1.0676 -1.06758 L 747.76,402.7123 c -14.54265,0.0433 -27.43653,0.13813 -28.65266,0.21094 m -85.28433,9.25962 c -0.35599,0.24838 -0.4448,1.11458 -0.32798,3.19691 l 0.16067,2.85578 -1.01823,-2.49631 c -0.55978,-1.37296 -1.02633,-2.7301 -1.03628,-3.01635 -0.01,-0.28582 -0.34974,-0.52007 -0.75511,-0.52007 -0.69429,0 -0.73703,0.27751 -0.73703,4.78458 0,4.61399 0.028,4.78457 0.79011,4.78457 0.75473,0 0.78017,-0.13395 0.57268,-3.01635 l -0.21707,-3.01638 0.75805,1.87223 c 0.41679,1.02973 0.87487,2.34027 1.01823,2.91235 0.15736,0.63032 0.57712,1.09256 1.0643,1.17327 0.78717,0.12981 0.80449,0.0295 0.80449,-4.65603 0,-2.63401 -0.13231,-4.88151 -0.29409,-4.99426 -0.16178,-0.11275 -0.51372,-0.0516 -0.78274,0.13606 m 26.26243,0.68605 c -0.51335,0.88411 -0.55279,1.30681 -0.21706,2.31116 0.34494,1.03221 0.28892,1.462 -0.3512,2.68686 -0.62575,1.19781 -0.68804,1.64006 -0.34936,2.47965 0.59627,1.47782 2.03757,2.12103 3.42616,1.5294 0.81849,-0.34864 1.34474,-0.35115 2.01103,-0.008 1.20839,0.62158 2.07995,-0.20426 0.94158,-0.892 -0.71825,-0.43395 -0.72821,-0.5342 -0.19644,-1.97124 0.46029,-1.24441 0.47318,-1.576 0.0722,-1.86266 -0.74405,-0.5317 -1.20802,-0.19597 -1.21686,0.88077 -0.0114,1.38254 -0.83802,1.5186 -1.36058,0.22384 -0.3652,-0.90491 -0.33424,-1.30057 0.17874,-2.2812 0.83397,-1.59346 0.79417,-3.21232 -0.0918,-3.74777 -1.18701,-0.71686 -2.1846,-0.48887 -2.84647,0.65152 m 27.05695,-0.63239 c -1.85772,1.21236 -1.62407,3.76068 0.45439,4.95807 1.54411,0.8891 2.06962,1.89761 1.43723,2.75799 -0.65154,0.88619 -1.41806,0.67734 -1.81238,-0.49384 -0.42307,-1.25605 -1.0971,-0.97896 -1.0971,0.451 0,1.15121 0.94748,1.86223 2.48164,1.86223 1.33958,0 1.94064,-0.67856 1.94064,-2.19091 0,-1.67085 -0.51116,-2.56911 -2.04273,-3.58927 -0.99427,-0.66194 -1.29534,-1.11503 -1.20727,-1.81565 0.16325,-1.29767 1.54853,-1.2756 1.71215,0.0271 0.0774,0.61575 0.33093,0.91446 0.70646,0.83209 0.86492,-0.18931 0.94231,-0.92904 0.19863,-1.90134 -0.82512,-1.0784 -1.94027,-1.43954 -2.77166,-0.89742 m 17.4083,4.57488 v 4.96057 l 1.75048,-0.006 c 2.22477,-0.008 2.64672,-0.32952 2.91869,-2.2213 0.16546,-1.15079 0.0535,-1.74449 -0.44663,-2.36815 -0.51151,-0.63821 -0.56606,-0.94693 -0.23366,-1.32221 0.49013,-0.55335 0.59075,-3.07629 0.13525,-3.39414 -0.16399,-0.11442 -1.15899,-0.2983 -2.21113,-0.40855 l -1.913,-0.20095 v 4.96097 m 14.53196,-4.47794 c -0.10209,0.3008 -0.13856,2.592 -0.0807,5.09163 0.0914,3.94208 0.19089,4.56364 0.75031,4.68429 0.54689,0.11857 0.64493,-0.1868 0.64493,-2.00577 0,-2.61654 0.5701,-2.60738 1.47998,0.0233 0.74442,2.15306 2.03129,2.90985 1.61597,0.95067 -0.13745,-0.64779 -0.45144,-1.62635 -0.69798,-2.1747 -0.3792,-0.84376 -0.34309,-1.11499 0.23548,-1.7682 1.68526,-1.9026 0.11092,-5.34792 -2.44404,-5.34792 -0.74884,0 -1.39854,0.23633 -1.50394,0.5467 m -80.29784,0.38943 c -0.16952,0.60535 -1.67383,8.56147 -1.67383,8.85271 0,0.10818 0.33167,0.19637 0.73704,0.19637 0.57343,0 0.73705,-0.27751 0.73705,-1.24815 0,-1.06509 0.13968,-1.24816 0.95337,-1.24816 0.72083,0 1.05508,0.30455 1.37054,1.24816 0.23696,0.70894 0.68655,1.24815 1.04033,1.24815 0.57157,0 0.58116,-0.19804 0.11719,-2.39229 -0.27823,-1.31596 -0.69946,-3.46861 -0.93605,-4.78457 -0.37995,-2.11353 -0.53324,-2.39229 -1.31488,-2.39229 -0.48683,0 -0.95079,0.23425 -1.03076,0.52007 m 6.06514,4.26451 c 0,3.97578 0.0936,4.78457 0.5528,4.78457 0.45917,0 0.55277,-0.80879 0.55277,-4.78457 0,-3.97578 -0.0936,-4.78458 -0.55277,-4.78458 -0.45917,0 -0.5528,0.8088 -0.5528,4.78458 m 4.05376,0 v 4.78457 h 2.21114 c 1.68047,0 2.21114,-0.14395 2.21114,-0.60036 0,-0.40857 -0.49972,-0.64071 -1.56623,-0.72809 l -1.56623,-0.12773 -0.10539,-4.05649 c -0.084,-3.22937 -0.21558,-4.05648 -0.64491,-4.05648 -0.44223,0 -0.53952,0.86165 -0.53952,4.78458 m 23.17089,-4.68057 c -0.0254,0.0574 -0.0719,2.21046 -0.10356,4.78457 l -0.0571,4.68057 h 2.13008 c 1.60824,0 2.13042,-0.14688 2.13042,-0.59912 0,-0.3915 -0.47797,-0.64362 -1.38196,-0.72807 -0.76542,-0.0716 -1.4026,-0.36116 -1.42803,-0.64906 -0.0254,-0.28582 -0.0667,-2.11145 -0.0921,-4.05648 -0.0368,-2.84288 -0.1544,-3.53642 -0.59885,-3.53642 -0.30402,0 -0.57342,0.0466 -0.59885,0.10401 m 7.25216,3.09708 c -0.33868,1.78651 -0.77205,3.79064 -0.96295,4.45382 -0.48571,1.68876 -0.44296,1.91424 0.36115,1.91424 0.48646,0 0.78348,-0.38984 0.95042,-1.24815 0.20232,-1.03929 0.42269,-1.24816 1.31894,-1.24816 0.9062,0 1.07647,0.16684 1.07647,1.05303 0,0.98895 0.87892,1.83769 1.35137,1.30473 0.11756,-0.13314 -0.129,-1.79441 -0.548,-3.69201 -0.419,-1.8976 -0.8126,-3.91835 -0.87487,-4.49043 -0.0836,-0.77343 -0.3619,-1.07258 -1.08457,-1.16745 -0.93309,-0.12191 -0.99648,0.002 -1.58796,3.12038 m 14.16824,1.58349 c 0,3.97578 0.0936,4.78457 0.55278,4.78457 0.41754,0 0.55279,-0.50842 0.55279,-2.08025 0,-1.9417 0.0615,-2.08025 0.9213,-2.08025 0.85977,0 0.9213,0.13855 0.9213,2.08025 0,1.80275 0.0984,2.08025 0.73705,2.08025 0.69429,0 0.73704,-0.2775 0.73704,-4.78457 0,-3.89505 -0.0991,-4.78458 -0.53251,-4.78458 -0.37406,0 -0.56605,0.5887 -0.64491,1.97623 -0.10172,1.78818 -0.19864,1.97625 -1.01971,1.97625 -0.80301,0 -0.91431,-0.1918 -0.96811,-1.6642 -0.0833,-2.29036 -0.0825,-2.28828 -0.70424,-2.28828 -0.45917,0 -0.55278,0.8088 -0.55278,4.78458 M 712.99207,412.28 c -0.3652,1.38669 -1.66571,9.36653 -1.56106,9.5783 0.31435,0.63656 1.19069,-0.21759 1.29793,-1.26521 0.087,-0.85041 0.34199,-1.13874 1.09304,-1.23692 0.82955,-0.10818 1.01749,0.067 1.22681,1.14413 0.1769,0.90908 0.46103,1.27229 0.99538,1.27229 0.63423,0 0.70755,-0.1739 0.48313,-1.14413 -0.1452,-0.62948 -0.55315,-2.73554 -0.90583,-4.68057 -0.59848,-3.29803 -0.70755,-3.54516 -1.61817,-3.66789 -0.53731,-0.0724 -0.99206,-0.0724 -1.01123,0 m -50.63726,2.0037 c 0,0.64946 -0.23808,1.08048 -0.64603,1.1691 -0.72967,0.15852 -1.20396,-0.83753 -0.86861,-1.82398 0.35157,-1.03388 1.51464,-0.53127 1.51464,0.65488 m 45.14406,-0.0445 c 0,1.18076 -0.80375,1.96833 -1.50726,1.47739 -0.38806,-0.27085 -0.45254,-1.99413 -0.0896,-2.40352 0.13489,-0.1527 0.54945,-0.2775 0.9213,-0.2775 0.49934,0 0.67551,0.3137 0.67551,1.20363 m 14.15792,-0.95108 c 0.37331,0.16143 0.58299,0.76054 0.58299,1.6642 0,1.2286 -0.11977,1.41166 -0.9213,1.41166 -0.82918,0 -0.9213,-0.16644 -0.9213,-1.66422 0,-1.67211 0.18353,-1.87802 1.25961,-1.41164 m -81.33229,4.9955 c -0.0881,0.099 -0.412,0.0707 -0.72046,-0.0628 -0.4695,-0.20302 -0.49604,-0.52672 -0.16252,-1.98581 l 0.39799,-1.74324 0.32247,1.80565 c 0.17725,0.99312 0.25023,1.88679 0.16252,1.98622 m 40.74205,-0.32284 c -0.81628,0.218 -0.95078,-0.17808 -0.64159,-1.8893 l 0.28523,-1.57973 0.44186,1.6642 c 0.36927,1.39168 0.35525,1.68709 -0.0855,1.80483 m 33.39741,-0.45267 c 0.0225,0.57332 -0.17762,0.9361 -0.51593,0.9361 -0.59443,0 -0.712,-1.16993 -0.29225,-2.91235 l 0.25059,-1.04011 0.26055,1.04011 c 0.14336,0.57208 0.27678,1.4616 0.29704,1.97625 m -6.74803,0.72726 c 0.3103,1.39626 -0.0417,2.2891 -0.90216,2.2891 -0.53621,0 -0.74514,-0.35656 -0.86012,-1.46907 -0.17173,-1.65962 -0.0792,-1.85932 0.86271,-1.85932 0.40537,0 0.75917,0.40857 0.89957,1.03929 m -45.81036,0.81712 c 0.65819,1.55852 0.37774,2.11645 -0.84391,1.67876 -1.01269,-0.3628 -1.01566,-3.11913 -0.004,-3.11913 0.13156,0 0.51299,0.64822 0.8476,1.44037 m -98.03854,3.86386 c 4.00289,0.067 10.55341,0.067 14.55667,0 4.00326,-0.0674 0.72783,-0.12232 -7.27834,-0.12232 -8.00617,0 -11.28159,0.0549 -7.27833,0.12232 m 36.29952,-0.002 c 1.67235,0.077 4.40827,0.077 6.08062,0 1.67235,-0.077 0.30405,-0.1402 -3.0403,-0.1402 -3.34435,0 -4.71267,0.0632 -3.04032,0.1402 m 149.43607,0.002 c 7.24626,0.0628 19.10312,0.0628 26.34938,0 7.24626,-0.0632 1.31748,-0.11483 -13.17469,-0.11483 -14.49217,0 -20.42095,0.0516 -13.17469,0.11483 m -197.15169,3.43242 c 0,1.02973 0.0719,1.45077 0.15994,0.93612 0.0877,-0.51465 0.0877,-1.35757 0,-1.87222 -0.0881,-0.51465 -0.15994,-0.0936 -0.15994,0.9361 m 2.96403,0.59828 c 0.16252,0.54711 58.37847,0.33033 59.21612,-0.22093 0.31877,-0.20927 -11.35124,-0.35365 -27.54709,-0.33991 -16.99038,0.0141 -28.09989,0.17598 -28.09989,0.40898 0,0.21218 -0.45622,0.36697 -1.01343,0.34408 l -1.01344,-0.0412 0.9213,-0.34574 c 0.72893,-0.27335 0.55389,-0.33531 -0.83691,-0.29663 -1.06061,0.0299 -1.70589,0.22465 -1.62666,0.49135 m 29.45789,0.1115 c -0.45624,0.099 -1.20213,0.099 -1.65837,0 -0.45624,-0.0994 -0.0829,-0.18056 0.82919,-0.18056 0.91209,0 1.28542,0.0811 0.82918,0.18056 m 10.13438,3.32841 c 0.45624,0.099 1.20211,0.099 1.65835,0 0.45624,-0.0994 0.0829,-0.18058 -0.82918,-0.18058 -0.91209,0 -1.28541,0.0812 -0.82917,0.18058 m 60.16138,0.12232 c -1.00348,0.23839 -0.65082,0.31868 1.58759,0.36111 4.39649,0.084 13.8163,2.50796 14.15091,3.64169 0.0656,0.22217 -0.5863,0.78925 -1.44828,1.26105 l -1.5677,0.85707 -3.13688,-1.26022 c -2.88185,-1.15787 -3.52566,-1.26023 -7.92729,-1.25689 -2.69427,0.002 -5.19397,0.20512 -5.71211,0.4639 -0.75216,0.37611 -0.5093,0.41729 1.32041,0.22466 2.94119,-0.30953 9.20793,0.53256 12.42255,1.6692 l 2.55829,0.9045 -2.71491,1.95958 c -1.49326,1.07798 -3.21242,2.45262 -3.82048,3.05422 l -1.10557,1.09422 1.4741,-0.87662 1.47409,-0.87662 -1.27584,1.2544 c -0.70167,0.68982 -1.42617,1.25438 -1.61007,1.25438 -0.18353,0 -0.8277,0.60826 -1.43134,1.35216 -0.96147,1.1845 -1.07461,1.23609 -0.91209,0.41606 0.20453,-1.03347 0.19494,-1.04387 -0.63461,-0.6844 -0.31951,0.13813 -0.5152,0.37237 -0.43449,0.52006 0.0807,0.14769 -1.0396,0.32618 -2.48974,0.39691 -2.26825,0.11025 -2.88922,-0.0241 -4.45175,-0.96357 -1.19806,-0.7206 -1.64546,-0.86038 -1.31453,-0.41022 1.10225,1.49945 3.42763,2.46217 5.98629,2.47798 1.36796,0.008 2.48753,0.14354 2.48753,0.30039 0,0.15685 -0.17211,0.7955 -0.38216,1.41999 -0.21042,0.62407 -0.25169,1.28183 -0.0921,1.46198 0.15957,0.17972 0.31399,-0.13438 0.34346,-0.69854 0.0774,-1.47822 1.04513,-2.94813 2.14701,-3.26016 1.03628,-0.29374 6.01835,-3.99283 5.37749,-3.99283 -1.00422,0 -0.18795,-1.33759 1.86988,-3.06379 1.73869,-1.45867 2.40905,-1.80817 2.89955,-1.51152 0.3512,0.21218 0.77575,0.25173 0.94379,0.0882 0.16804,-0.16351 0.0122,0.2309 -0.34642,0.87703 -0.64749,1.16743 -0.64677,1.17158 0.1404,0.69604 1.14869,-0.69397 1.84004,-0.2201 1.84004,1.26146 0,0.70687 0.13821,1.18907 0.30699,1.07133 0.16915,-0.11774 0.23585,-0.7618 0.14888,-1.43163 -0.087,-0.66943 0.0309,-1.34882 0.26201,-1.51025 0.46876,-0.32701 2.02616,0.67026 3.15162,2.01784 0.40537,0.48512 1.06871,1.14373 1.47408,1.46325 0.40537,0.31995 -0.21042,-0.48553 -1.36868,-1.78902 -1.98818,-2.23877 -2.1883,-2.35983 -3.59531,-2.1776 -0.8196,0.10651 -1.40114,0.0316 -1.29279,-0.16642 0.10835,-0.19804 -0.13967,-0.56292 -0.55057,-0.8113 -1.02044,-0.61658 -0.93863,-1.06426 0.30146,-1.64382 0.86529,-0.40483 1.28393,-0.36363 2.39539,0.23466 1.33553,0.71894 1.76891,1.40291 0.88888,1.40291 -0.25171,0 0.36999,0.49178 1.38196,1.09298 2.70495,1.60679 6.65626,4.8607 6.13922,5.05542 -0.56273,0.21177 1.92775,2.2708 4.21333,3.484 1.59349,0.84541 1.94359,0.88201 4.48566,0.46888 4.78932,-0.77927 7.45852,-3.7665 6.92859,-7.75559 -0.14703,-1.10795 -0.59258,-2.36023 -1.00532,-2.82621 -1.10962,-1.25273 -0.56053,-1.3892 1.23049,-0.30538 5.10588,3.08917 6.84201,8.30934 4.51626,13.5782 -2.19381,4.97014 -9.80381,7.90243 -14.39671,5.54801 -1.7877,-0.91657 -2.3663,-1.6983 -1.25705,-1.6983 1.1918,0 1.74937,-1.77654 0.97585,-3.10915 -0.69208,-1.1924 -2.01582,-1.19366 -3.18145,-0.002 -1.6602,1.69624 -0.77611,3.44031 2.6939,5.31504 3.66016,1.97706 7.70582,1.80898 11.47912,-0.47721 6.28516,-3.8081 7.58348,-11.24166 2.97399,-17.02933 -4.51477,-5.66909 -11.87455,-6.89438 -21.87995,-3.64336 -4.45508,1.44786 -4.4842,1.45161 -5.60119,0.68483 -1.01085,-0.69439 -1.06613,-0.8346 -0.55499,-1.41166 0.31214,-0.35281 1.60676,-1.02849 2.87669,-1.50236 4.50114,-1.67876 7.64869,-2.08316 16.68746,-2.14598 5.02297,-0.0345 8.56631,-0.21716 8.44728,-0.43435 -0.11314,-0.20636 -3.98816,-0.37487 -8.61128,-0.37487 -9.1869,0 -12.99965,0.50425 -17.14848,2.26706 -2.69832,1.14663 -4.05375,1.10795 -7.45043,-0.21385 -4.25606,-1.65546 -9.3461,-2.33445 -12.27991,-1.63715 m -4.14589,0.29372 c 0.45624,0.099 1.20212,0.099 1.65836,0 0.45624,-0.0994 0.0829,-0.18056 -0.82918,-0.18056 -0.91209,0 -1.28542,0.0811 -0.82918,0.18056 m -4.51994,4.74629 c -3.4748,2.08025 -5.81196,5.30464 -6.60023,9.10568 l -0.21596,1.04013 0.42601,-1.04013 c 2.07479,-5.06749 2.88111,-6.16461 5.72832,-7.79179 1.06282,-0.60785 2.01581,-1.35009 2.11753,-1.64922 0.23549,-0.69273 0.27749,-0.70272 -1.45567,0.33533 m 44.80024,-0.41978 c 1.10446,0.2671 2.36851,0.93403 3.023,1.5943 0.94158,0.94943 1.1531,1.51857 1.29792,3.48774 0.20528,2.79585 -0.3324,3.97868 -2.2852,5.02463 -1.92038,1.02889 -9.0933,0.82585 -10.82315,-0.30621 -1.69558,-1.1096 -1.22424,-1.33843 0.52219,-0.25337 l 1.4284,0.88702 -1.10557,-1.0992 c -0.60806,-0.60451 -2.36482,-2.11144 -3.90377,-3.3492 -3.92219,-3.15408 -4.05485,-3.38499 -2.39097,-4.17008 1.26993,-0.59869 5.30527,-1.63259 7.76884,-1.99039 2.29442,-0.33283 4.63307,-0.26958 6.46831,0.17476 m -44.46451,3.10164 c -0.31509,1.41624 0.0324,4.71136 0.55942,5.30631 0.31288,0.35322 0.31214,0.12399 -0.003,-0.89575 -0.23254,-0.75347 -0.34419,-2.2937 -0.24838,-3.42285 0.1909,-2.24333 0.0626,-2.65524 -0.30809,-0.98771 m 18.28022,3.92751 c -0.33205,0.24214 -0.37776,0.40566 -0.11389,0.40981 0.24138,0.003 0.54136,-0.18098 0.66666,-0.40981 0.28266,-0.51673 0.15516,-0.51673 -0.55277,0 m 8.38204,5.29133 c 0.15183,2.02492 0.0549,2.82664 -0.44628,3.69036 l -0.64049,1.10378 -0.75289,-0.85041 c -0.52663,-0.59454 -0.82365,-1.64089 -0.98801,-3.48233 -0.2167,-2.42806 -0.25538,-2.51917 -0.49934,-1.17326 -0.43486,2.40228 0.53914,5.12989 2.34084,6.55445 0.78311,0.61949 0.81925,0.60949 0.63756,-0.17517 -0.10577,-0.45724 0.0332,-1.1799 0.30919,-1.60593 0.54468,-0.84083 0.63679,-4.47087 0.1474,-5.81638 -0.17874,-0.49178 -0.22296,0.22632 -0.10798,1.75489 m -33.27394,0.89575 c 0.0785,1.00018 0.31584,2.0141 0.52737,2.25292 0.36815,0.41563 0.31693,0.0632 -0.47171,-3.23937 -0.10909,-0.45765 -0.13416,-0.0137 -0.0557,0.98645 m 45.61468,3.63586 c 0.37664,0.93319 0.33905,1.16743 -0.26939,1.66961 -0.6206,0.51215 -0.79268,0.4872 -1.40591,-0.20469 -0.47024,-0.53089 -0.61765,-1.07674 -0.45071,-1.66961 0.34826,-1.239 1.59166,-1.11919 2.12601,0.20469 m -44.67678,-0.22923 c 0,0.24214 0.16584,0.32492 0.36853,0.18347 0.20269,-0.14145 0.36852,-0.3395 0.36852,-0.4406 0,-0.1011 -0.16583,-0.18347 -0.36852,-0.18347 -0.20269,0 -0.36853,0.19846 -0.36853,0.4406 m 14.77003,0.27085 c -0.0158,0.50549 0.3862,1.3538 0.89366,1.8851 l 0.92316,0.96649 -1.17449,0.78301 c -1.56253,1.0422 -6.64555,1.5685 -8.20478,0.84999 -0.62907,-0.28957 -1.45271,-0.38151 -1.86399,-0.20801 -0.62023,0.26128 -0.50305,0.38568 0.73704,0.78383 0.81076,0.26002 2.38619,0.55667 3.50097,0.6586 1.64141,0.1502 1.78181,0.11941 0.73704,-0.16267 -1.13726,-0.30746 -1.02817,-0.34615 0.92131,-0.32826 2.51554,0.0233 4.23065,-0.68315 6.58441,-2.71223 1.47188,-1.26855 1.57395,-1.46949 1.11108,-2.18385 -0.45624,-0.70437 -0.5093,-0.71186 -0.5093,-0.0724 0,0.79881 -1.54705,1.62716 -2.37217,1.26977 -0.29446,-0.12773 -0.69762,-0.73098 -0.89515,-1.3405 -0.32651,-1.00643 -0.36225,-1.02389 -0.38879,-0.18888 m 10.01315,0.53211 c -1.64546,1.13249 -1.5128,1.44495 0.17872,0.42147 1.48405,-0.89784 2.86712,-1.08007 3.22569,-0.42479 0.12456,0.22716 -0.42639,0.52505 -1.24525,0.67317 -0.80781,0.14562 -1.55663,0.5238 -1.66424,0.84 -0.38548,1.13373 2.5358,0.35157 3.80278,-1.01807 1.29868,-1.40417 -2.36332,-1.82314 -4.2977,-0.49178 m 8.26595,-0.36195 c -0.64419,0.42312 -0.64454,0.46182 -0.009,0.98604 0.3711,0.30662 1.15386,0.45556 1.78477,0.34032 1.5806,-0.28957 2.88736,0.97064 2.88736,2.78462 0,1.7241 -1.194,2.91235 -2.92753,2.91235 -0.88224,0 -1.24893,0.1893 -1.24893,0.64488 0,0.8242 1.09931,3.24518 1.34695,2.96601 0.10281,-0.11607 0.008,-0.58953 -0.21153,-1.05176 -0.57269,-1.20821 -0.51887,-1.31098 0.68656,-1.31098 1.4693,0 2.9467,-1.5373 3.19878,-3.32839 0.25687,-1.82271 -0.74774,-3.40454 -2.91097,-4.58446 -1.73611,-0.94693 -1.70626,-0.94277 -2.59625,-0.35863 m -31.94355,1.08131 c 0,0.38859 1.86473,2.19757 2.26494,2.19757 0.16952,0 -0.21265,-0.56166 -0.84872,-1.24814 -1.2095,-1.30473 -1.41622,-1.44328 -1.41622,-0.94943 m 22.32363,4.82951 c 0.20379,0.59287 2.44257,2.36066 2.98983,2.36066 0.21633,0 0.59924,-0.28082 0.85167,-0.62407 0.37995,-0.51673 0.34012,-0.62573 -0.23145,-0.63322 -0.3792,-0.005 -1.38454,-0.3653 -2.23361,-0.80049 -0.92537,-0.4743 -1.47704,-0.59579 -1.37644,-0.30288 m 4.83098,1.11251 c -0.34052,1.05177 -0.48425,3.69828 -0.18979,3.49275 0.37331,-0.26045 0.7938,-2.89613 0.57047,-3.57429 -0.13673,-0.41522 -0.22627,-0.39567 -0.38068,0.0815 m 3.07163,13.92769 c -0.29076,0.39524 -0.31876,0.63406 -0.0741,0.63406 0.44517,0 0.96442,-0.78924 0.70904,-1.07797 -0.0929,-0.10443 -0.37848,0.0953 -0.63498,0.44391"
           id="CompoundPath-1-1"
           fill="#ffffff"
           fill-rule="evenodd"
           style="fill:#ffcc00;fill-opacity:1" /></g><g
         id="Layer2-1"
         fill="none"
         fill-rule="nonzero"
         font-family="sans-serif"
         font-weight="normal"
         font-size="12px"
         text-anchor="start" /></g></g></svg>
